<?xml version="1.0" encoding="utf-8" ?><svg xmlns="http://www.w3.org/2000/svg" xmlns:xlink="http://www.w3.org/1999/xlink" width="1024" height="1024" viewBox="0 0 1024 1024"><path fill="white" d="M0 0L1024 0L1024 1024L0 1024L0 0ZM381.955 110.07C380.676 110.745 379.565 111.215 378.462 112.125L377.749 112.643C373.744 115.499 367.911 118.048 363.545 120.687C332.694 139.333 306.068 164.692 282.663 191.93C279.001 196.192 270.636 206.156 268.45 211.027C267.77 212.068 266.903 213.502 266.151 214.443C263.846 215.971 241.93 238.373 239.448 241.383C235.259 244.159 230.832 246.812 227.574 250.646L226.711 251.171C220.399 255.071 214.025 260.771 207.325 265.001C192.027 274.66 176.168 280.941 160.505 289.62C152.104 294.275 143.032 301.688 134.94 306.81L132.976 308.803C47.4892 375.065 7.43015 483.599 19.7132 589.64C20.2337 594.133 23.7821 618.745 23.0938 621.136C21.0327 621.765 21.7717 621.189 20.5332 622.559C20.6801 624.205 20.385 623.406 22.005 624.804C23.3094 624.973 23.8395 625.042 25.1466 625.032C29.2284 639.14 35.9928 666.913 38.326 681.589C33.1672 681.532 25.4222 680.97 20.7977 682.683L20.5336 683.456C23.8245 685.703 34.9734 684.987 39.4568 684.92C44.5956 704.785 49.6541 737.587 49.0372 757.471C47.2522 815.015 53.0155 872.499 76.5899 925.604C78.6222 930.182 80.565 935.186 82.5306 939.898C72.7151 939.878 51.3326 939.266 42.491 940.078C39.7157 940.057 35.9343 939.769 33.4252 940.615C32.1553 942.079 32.4608 941.277 32.1927 942.971C35.2569 946.941 52.9503 945.379 58.5725 945.334L98.7648 945.29L253.533 945.34L833.089 945.124L936.477 945.303C944.1 945.301 988.12 945.824 991.13 944.254C992.061 942.549 991.949 942.033 990.947 940.175C987.707 939.688 978.17 939.921 974.264 939.925L942.115 939.89C946.78 932.205 951.367 917.527 954.622 908.829C965.31 880.261 971.243 850.693 974.008 820.364C975.214 807.138 974.455 794.248 974.934 780.991C975.64 757.114 977.587 733.29 980.765 709.615C981.165 706.462 983.255 688.558 984.352 686.606C985.981 685.307 987.699 685.522 989.794 685.118C992.602 685.054 995.41 685.016 998.219 685.003C1000.84 684.981 1001.7 685.134 1003.34 683.475L1002.88 682.651C999.019 681.073 989.185 681.67 984.479 681.683C986.817 667.175 991.497 652.877 994.266 638.436C995.048 634.355 995.794 630.328 996.821 626.298C998.379 625.441 1000.34 625.545 1002.26 625.391C1002.39 625.017 1002.59 623.898 1002.68 623.464C1001.9 621.577 1002.52 622.396 1000.41 621.231C999.943 619.221 1002.56 605.307 1002.98 602.295C1004.72 589.908 1006.41 577.579 1007.18 565.075C1008.23 545.556 1007.31 525.98 1004.42 506.647C995.204 445.872 968.119 383.203 924.741 338.949C907.798 322.385 887.877 306.625 867.904 293.974C835.962 273.744 799.803 261.538 774.358 232.107C770.971 228.19 763.225 216.69 760.096 214.383C759.39 213.235 758.669 212.191 757.909 211.082C756.248 208.895 753.55 206.343 751.497 203.619C735.566 182.488 718.561 163.098 698.317 145.937C694.705 142.875 687.773 136.573 683.74 134.178L680.101 131.682C675.752 128.166 670.248 125.321 665.449 122.41C656.793 117.16 648.197 111.89 639.063 107.495C627.03 101.706 614.042 97.2323 601.412 92.9392C588.166 88.437 574.461 85.761 560.659 83.6384C544.757 81.1925 528.653 79.4494 512.544 79.5383C471.868 79.7629 418.454 92.0936 381.955 110.07Z"/><path fill="#D7E4F3" d="M381.955 110.07C418.454 92.0936 471.868 79.7629 512.544 79.5383C528.653 79.4494 544.757 81.1925 560.659 83.6384C574.461 85.761 588.166 88.437 601.412 92.9392C614.042 97.2323 627.03 101.706 639.063 107.495C648.197 111.89 656.793 117.16 665.449 122.41C670.248 125.321 675.752 128.166 680.101 131.682C672.305 138.788 669.348 142.268 665.783 152.171C641.477 149.013 620.213 165.753 620.703 191.287C620.837 198.295 623.863 204.645 626.471 211.08L470.573 211.095C471.659 204.155 472.015 199.05 469.826 192.205C467.089 183.53 461.002 176.307 452.917 172.14C442.945 167.017 432.327 167.354 421.887 170.705C413.612 151.721 402.249 144.839 382.039 142.353L381.955 110.07Z"/><path fill="#3768B4" d="M378.462 112.125C379.565 111.215 380.676 110.745 381.955 110.07L382.039 142.353C402.249 144.839 413.612 151.721 421.887 170.705C432.327 167.354 442.945 167.017 452.917 172.14C461.002 176.307 467.089 183.53 469.826 192.205C472.015 199.05 471.659 204.155 470.573 211.095L626.471 211.08C623.863 204.645 620.837 198.295 620.703 191.287C620.213 165.753 641.477 149.013 665.783 152.171C669.348 142.268 672.305 138.788 680.101 131.682L683.74 134.178C673.479 142.125 672.166 144.606 667.503 156.592C656.642 154.889 647.078 155.519 637.864 162.35C630.606 167.804 625.86 175.959 624.703 184.965C623.022 197.191 626.795 201.076 630.53 211.327L757.909 211.082C758.669 212.191 759.39 213.235 760.096 214.383C756.42 215.665 703.474 214.814 695.814 214.792L560.948 214.627L370.861 214.613L303.067 214.64C291.151 214.626 277.996 214.866 266.151 214.443C266.903 213.502 267.77 212.068 268.45 211.027L293.063 211.125C292.686 205.076 292.359 200.168 293.757 194.213C295.796 185.435 301.287 177.849 308.988 173.169C319.057 167.083 328.599 167.093 339.631 169.757C347.375 151.096 359.091 145.297 378.545 142.461L378.462 112.125ZM374.346 146.621C363.376 148.653 354.522 153.299 347.851 162.567C345.102 166.386 343.717 170.091 341.504 173.954C331.043 170.971 322.691 169.864 312.643 175.397C305.377 179.325 299.981 185.993 297.656 193.92C295.971 199.793 296.37 205.003 296.589 211.024L392.25 210.991C417.032 210.982 442.414 211.264 467.143 210.935C467.741 203.99 468.059 198.754 466.184 193.036C460.356 175.261 441.459 168.085 424.422 173.689C422.79 174.227 419.955 175.294 419.405 173.823C417.552 170.958 416.572 167.718 414.857 164.841C405.854 149.747 390.989 145.492 374.346 146.621Z"/><path fill="#D7E4F3" d="M268.45 211.027C270.636 206.156 279.001 196.192 282.663 191.93C306.068 164.692 332.694 139.333 363.545 120.687C367.911 118.048 373.744 115.499 377.749 112.643L378.462 112.125L378.545 142.461C359.091 145.297 347.375 151.096 339.631 169.757C328.599 167.093 319.057 167.083 308.988 173.169C301.287 177.849 295.796 185.435 293.757 194.213C292.359 200.168 292.686 205.076 293.063 211.125L268.45 211.027Z"/><path fill="#D7E4F3" d="M683.74 134.178C687.773 136.573 694.705 142.875 698.317 145.937C718.561 163.098 735.566 182.488 751.497 203.619C753.55 206.343 756.248 208.895 757.909 211.082L630.53 211.327C626.795 201.076 623.022 197.191 624.703 184.965C625.86 175.959 630.606 167.804 637.864 162.35C647.078 155.519 656.642 154.889 667.503 156.592C672.166 144.606 673.479 142.125 683.74 134.178Z"/><path fill="white" d="M341.504 173.954C343.717 170.091 345.102 166.386 347.851 162.567C354.522 153.299 363.376 148.653 374.346 146.621C390.989 145.492 405.854 149.747 414.857 164.841C416.572 167.718 417.552 170.958 419.405 173.823C419.955 175.294 422.79 174.227 424.422 173.689C441.459 168.085 460.356 175.261 466.184 193.036C468.059 198.754 467.741 203.99 467.143 210.935C442.414 211.264 417.032 210.982 392.25 210.991L296.589 211.024C296.37 205.003 295.971 199.793 297.656 193.92C299.981 185.993 305.377 179.325 312.643 175.397C322.691 169.864 331.043 170.971 341.504 173.954Z"/><path fill="#D7E4F3" d="M239.448 241.383C241.93 238.373 263.846 215.971 266.151 214.443C277.996 214.866 291.151 214.626 303.067 214.64L370.861 214.613L560.948 214.627L695.814 214.792C703.474 214.814 756.42 215.665 760.096 214.383C763.225 216.69 770.971 228.19 774.358 232.107C799.803 261.538 835.962 273.744 867.904 293.974C887.877 306.625 907.798 322.385 924.741 338.949C968.119 383.203 995.204 445.872 1004.42 506.647C1007.31 525.98 1008.23 545.556 1007.18 565.075C1006.41 577.579 1004.72 589.908 1002.98 602.295C1002.56 605.307 999.943 619.221 1000.41 621.231C997.69 621.931 975.825 621.504 971.69 621.463C984.594 606.559 990.88 594.063 992.523 574.009C994.136 554.318 986.847 533.01 973.51 518.482C965.057 509.274 949.322 498.441 938.933 490.194L913.164 469.43C903.832 461.866 895.266 454.36 884.493 448.83C872.514 442.689 859.377 439.139 845.935 438.41C845.666 424.121 845.495 409.831 845.422 395.54C845.464 370.922 849.745 347.665 818.607 341.393C816.818 337.856 814.815 335.062 811.656 332.592C807.121 329.095 801.347 327.618 795.69 328.51C790.333 329.318 785.521 332.231 782.321 336.602C774.345 347.651 778.352 359.53 788.856 366.904C788.428 377.996 788.752 389.205 788.63 400.323C788.576 405.21 788.409 411.705 791.253 415.914C794.124 420.163 798.394 420.438 803.068 421.086L803.085 438.44C783.656 439.513 774.635 443.497 757.273 450.854C743.321 456.775 729.447 462.878 715.655 469.161C705.105 473.855 695.358 479.456 683.753 479.581C671.991 479.71 660.674 475.09 652.363 466.766C643.271 457.739 640.415 443.225 636.765 431.184L624.158 389.595C620.307 377.351 616.567 365.073 612.938 352.761C611.762 348.896 607.728 336.844 607.359 333.967C606.38 326.329 606.811 313.542 606.779 305.559C624.148 303.918 629.297 285.319 618.421 272.808C613.321 266.94 607.491 266.19 600.194 265.798C595.134 234.249 554.055 236.651 550.226 265.533C543.436 265.397 534.761 264.721 528.713 267.84C512.649 276.126 511.537 299.939 530.427 305.488C529.937 315.99 530.137 327.765 530.093 338.362C517.775 338.345 505.457 338.211 493.142 337.96C492.841 327.4 493 315.829 492.947 305.193C501.683 302.859 506.972 296.162 506.98 287.022C507.001 281.23 504.605 275.693 500.371 271.742C492.769 264.591 484.52 265.377 475.127 265.796C474.329 262.323 473.449 259.151 471.693 256.02C468.381 249.978 462.73 245.565 456.065 243.816C449.337 242.136 442.217 243.217 436.291 246.82C428.481 251.629 426.575 257.762 424.683 265.949C419.705 265.251 414.638 266.255 410.303 268.8C397.504 276.15 394.556 294.659 408.297 302.874C410.7 304.31 413.238 304.729 415.947 305.307C415.971 314.579 416.819 327.576 414.157 336.302C411.932 343.594 409.709 350.618 407.674 358.013C401.932 379.128 395.977 400.186 389.811 421.182C384.887 438.422 381.866 459.295 367.185 470.66C358.461 477.413 347.172 481.904 335.93 480.646C329.993 479.982 322.532 475.012 316.803 473.073C302.091 466.602 286.645 460.583 272.103 453.846C253.94 445.432 240.928 441.69 221.011 439.426L220.985 422.419C225.004 422.368 230.017 422.426 232.954 419.309C236.827 415.008 236.585 408.464 236.542 403.09C236.466 393.755 236.448 384.45 236.437 375.13C240.678 370.274 243.894 366.524 245.995 360.27C251.989 342.421 242.079 322.29 224.159 316.409C214.318 313.279 203.641 314.135 194.424 318.792C184.879 323.666 178.244 332.087 174.96 342.196C161.35 346.007 152.149 352.739 148.653 367.101C146.258 376.762 147.837 386.98 153.037 395.467C159.256 405.62 167.379 409.611 178.523 412.2C178.521 421.346 178.338 430.621 178.238 439.777C164.435 440.824 154.905 441.49 141.769 447.524C131.471 452.254 125.675 458.076 116.954 465.037L93.6918 483.406C80.8393 493.49 64.3261 505.626 52.6297 516.564C39.8032 528.558 32.1086 552.024 32.5867 569.422C33.152 589.991 40.9821 607.275 55.9175 621.639C50.1071 621.624 27.2817 622.095 23.0938 621.136C23.7821 618.745 20.2337 594.133 19.7132 589.64C7.43015 483.599 47.4892 375.065 132.976 308.803C136.867 309.287 146.633 308.996 151.207 308.994L188.634 308.971C207.429 308.929 226.223 308.988 245.017 309.145C256.441 309.231 267.973 309.46 279.339 309.295C301.705 308.969 304.386 285.475 298.279 268.854C291 249.041 272.854 233.914 250.936 237.856C246.974 238.568 243.207 240.025 239.448 241.383Z"/><path fill="#3768B4" d="M227.574 250.646C230.832 246.812 235.259 244.159 239.448 241.383C243.207 240.025 246.974 238.568 250.936 237.856C272.854 233.914 291 249.041 298.279 268.854C304.386 285.475 301.705 308.969 279.339 309.295C267.973 309.46 256.441 309.231 245.017 309.145C226.223 308.988 207.429 308.929 188.634 308.971L151.207 308.994C146.633 308.996 136.867 309.287 132.976 308.803L134.94 306.81C165.365 307.626 198.299 307.087 228.925 307.191L262.261 307.295C279.444 307.34 298.073 310.714 299.15 286.618C300.517 256.007 270.472 228.282 240.407 243.358C236.523 245.306 231.46 250.801 227.574 250.646Z"/><path fill="#D7E4F3" d="M134.94 306.81C143.032 301.688 152.104 294.275 160.505 289.62C176.168 280.941 192.027 274.66 207.325 265.001C214.025 260.771 220.399 255.071 226.711 251.171L227.574 250.646C231.46 250.801 236.523 245.306 240.407 243.358C270.472 228.282 300.517 256.007 299.15 286.618C298.073 310.714 279.444 307.34 262.261 307.295L228.925 307.191C198.299 307.087 165.365 307.626 134.94 306.81Z"/><path d="M25.1466 625.032C23.8395 625.042 23.3094 624.973 22.005 624.804C20.385 623.406 20.6801 624.205 20.5332 622.559C21.7717 621.189 21.0327 621.765 23.0938 621.136C27.2817 622.095 50.1071 621.624 55.9175 621.639C40.9821 607.275 33.152 589.991 32.5867 569.422C32.1086 552.024 39.8032 528.558 52.6297 516.564C64.3261 505.626 80.8393 493.49 93.6918 483.406L116.954 465.037C125.675 458.076 131.471 452.254 141.769 447.524C154.905 441.49 164.435 440.824 178.238 439.777C178.338 430.621 178.521 421.346 178.523 412.2C167.379 409.611 159.256 405.62 153.037 395.467C147.837 386.98 146.258 376.762 148.653 367.101C152.149 352.739 161.35 346.007 174.96 342.196C178.244 332.087 184.879 323.666 194.424 318.792C203.641 314.135 214.318 313.279 224.159 316.409C242.079 322.29 251.989 342.421 245.995 360.27C243.894 366.524 240.678 370.274 236.437 375.13C236.448 384.45 236.466 393.755 236.542 403.09C236.585 408.464 236.827 415.008 232.954 419.309C230.017 422.426 225.004 422.368 220.985 422.419L221.011 439.426C240.928 441.69 253.94 445.432 272.103 453.846C286.645 460.583 302.091 466.602 316.803 473.073C322.532 475.012 329.993 479.982 335.93 480.646C347.172 481.904 358.461 477.413 367.185 470.66C381.866 459.295 384.887 438.422 389.811 421.182C395.977 400.186 401.932 379.128 407.674 358.013C409.709 350.618 411.932 343.594 414.157 336.302C416.819 327.576 415.971 314.579 415.947 305.307C413.238 304.729 410.7 304.31 408.297 302.874C394.556 294.659 397.504 276.15 410.303 268.8C414.638 266.255 419.705 265.251 424.683 265.949C426.575 257.762 428.481 251.629 436.291 246.82C442.217 243.217 449.337 242.136 456.065 243.816C462.73 245.565 468.381 249.978 471.693 256.02C473.449 259.151 474.329 262.323 475.127 265.796C484.52 265.377 492.769 264.591 500.371 271.742C504.605 275.693 507.001 281.23 506.98 287.022C506.972 296.162 501.683 302.859 492.947 305.193C493 315.829 492.841 327.4 493.142 337.96C505.457 338.211 517.775 338.345 530.093 338.362C530.137 327.765 529.937 315.99 530.427 305.488C511.537 299.939 512.649 276.126 528.713 267.84C534.761 264.721 543.436 265.397 550.226 265.533C554.055 236.651 595.134 234.249 600.194 265.798C607.491 266.19 613.321 266.94 618.421 272.808C629.297 285.319 624.148 303.918 606.779 305.559C606.811 313.542 606.38 326.329 607.359 333.967C607.728 336.844 611.762 348.896 612.938 352.761C616.567 365.073 620.307 377.351 624.158 389.595L636.765 431.184C640.415 443.225 643.271 457.739 652.363 466.766C660.674 475.09 671.991 479.71 683.753 479.581C695.358 479.456 705.105 473.855 715.655 469.161C729.447 462.878 743.321 456.775 757.273 450.854C774.635 443.497 783.656 439.513 803.085 438.44L803.068 421.086C798.394 420.438 794.124 420.163 791.253 415.914C788.409 411.705 788.576 405.21 788.63 400.323C788.752 389.205 788.428 377.996 788.856 366.904C778.352 359.53 774.345 347.651 782.321 336.602C785.521 332.231 790.333 329.318 795.69 328.51C801.347 327.618 807.121 329.095 811.656 332.592C814.815 335.062 816.818 337.856 818.607 341.393C849.745 347.665 845.464 370.922 845.422 395.54C845.495 409.831 845.666 424.121 845.935 438.41C859.377 439.139 872.514 442.689 884.493 448.83C895.266 454.36 903.832 461.866 913.164 469.43L938.933 490.194C949.322 498.441 965.057 509.274 973.51 518.482C986.847 533.01 994.136 554.318 992.523 574.009C990.88 594.063 984.594 606.559 971.69 621.463C975.825 621.504 997.69 621.931 1000.41 621.231C1002.52 622.396 1001.9 621.577 1002.68 623.464C1002.59 623.898 1002.39 625.017 1002.26 625.391C992.46 624.833 981.247 625.027 971.338 625.02L924.889 625.014L924.972 681.592C944.658 681.637 964.838 681.391 984.479 681.683C989.185 681.67 999.019 681.073 1002.88 682.651L1003.34 683.475C1001.7 685.134 1000.84 684.981 998.219 685.003C995.41 685.016 992.602 685.054 989.794 685.118C968.671 685.052 945.972 684.758 924.936 685.277L924.904 723.069C924.896 729.519 925.135 738.607 924.635 744.799C922.196 744.957 919.756 745.101 917.316 745.233C909.093 766.971 889.679 789.587 868.314 799.26C861.063 802.543 852.93 804.723 845.121 806.152C830.485 807.233 810.077 806.818 795.176 806.858L707.644 806.923L690.927 806.914C689.717 842.512 682.003 877.587 668.167 910.408C663.836 920.597 658.192 930.404 654.087 939.944C652.528 941.134 651.156 940.747 649.352 940.299C652.983 934.824 658.078 924.478 660.875 918.524C676.786 884.65 687.048 844.31 687.333 806.821C675.609 806.539 663.466 806.77 651.735 806.957C649.618 806.991 645.134 806.875 643.662 805.441C645.897 803.118 655.825 803.781 659.24 803.771C673.539 803.727 687.844 803.834 702.144 803.859L790.603 803.451C808.496 803.373 828.206 804.029 845.865 802.446C876.789 799.675 902.538 771.964 913.809 745.083C894.537 744.608 873.262 745.09 853.856 745.063L776.28 744.598C768.603 744.61 719.93 745.649 716.068 743.585C713.608 739.075 714.496 715.386 714.499 708.85C681.535 708.449 652.236 707.244 624.162 728.125C604.576 742.693 589.677 765.937 585.297 790.032C582.906 803.184 581.047 816.159 578.847 829.208C572.551 866.083 566.518 903.003 560.751 939.965C559.091 940.588 559.044 940.504 557.337 940.489C558.64 925.949 563.333 908.302 564.494 894.143C566.779 882.925 568.488 870.645 570.297 859.271L576.33 822.702C579.003 805.768 581.504 786.133 587.645 770.394C592.909 757.125 600.808 745.06 610.865 734.928C626.774 719.06 651.83 707.682 674.026 705.914C686.081 704.953 701.909 705.312 714.298 705.311L714.214 685.143L563.432 684.983L457.5 684.865L308.465 684.995L308.428 706.596C338.732 706.597 363.587 704.057 391.335 719.162C399.046 723.264 406.128 728.45 412.366 734.563C430.976 753.156 436.563 772.479 441.296 797.189C443.662 809.419 445.815 821.69 447.754 833.995L456.655 885.898C457.166 891.446 457.817 901.791 456.532 907.249C450.475 875.478 446.365 841.733 440.185 809.878C437.55 796.289 435.257 778.919 429.836 766.487C422.921 750.393 411.566 736.601 397.101 726.722C368.128 706.976 341.686 709.925 308.304 710.004C308.337 722.06 308.606 734.929 308.384 746.916C243.034 747.769 176.737 747.432 111.346 747.332C119.476 769.176 134.426 785.996 155.913 795.397C162.044 798.08 170.177 801.126 176.884 801.617C194.193 802.885 212.346 802.333 229.712 802.324L330.161 802.368L362.71 802.297C365.634 802.291 379.764 801.904 381.268 802.961C381.334 804.902 381.598 804.096 380.825 805.583C376.386 806.923 341.616 805.957 334.294 806.023C338.724 848.532 351.322 895.067 369.315 933.929C370.058 935.533 371.86 938.964 372.078 940.487L368.353 940.275C348.352 901.595 336.641 849.304 330.919 806.378L317.859 806.33C308.197 805.827 294.285 806.256 284.22 806.268L218.06 806.36C202.652 806.381 186.998 807.224 171.907 804.737C140.26 796.937 118.316 778.09 107.352 747.226L99.4578 747.105C98.8713 727.112 99.2718 705.065 99.2954 684.894L39.4568 684.92C34.9734 684.987 23.8245 685.703 20.5336 683.456L20.7977 682.683C25.4222 680.97 33.1672 681.532 38.326 681.589L714.467 681.56L714.5 625.003C689.354 624.591 662.97 625.024 637.726 625.026L483.074 625.072L25.1466 625.032ZM424.447 304.973C422.747 304.97 420.684 304.755 419.276 305.534C418.637 309.358 419.101 332.688 419.128 337.831L418.994 400.334C441.396 400.404 467.439 401.018 489.567 400.324C490.455 380.93 489.473 359.297 489.909 339.659C490.04 333.736 490.285 309.812 489.666 305.734C488.318 304.834 486.754 305.067 485.049 305.053C467.447 304.223 442.41 304.867 424.447 304.973ZM603.474 305.309C599.064 304.708 577.57 304.832 572.399 304.98C561.853 305.283 543.128 304.297 533.352 305.332L533.231 367.542C533.263 377.757 533.042 390.094 533.589 400.131C552.151 401.141 571.556 399.915 590.227 400.352C594.344 400.449 599.032 400.452 603.147 400.214C604.029 373.807 603.203 347.104 603.506 320.662C603.564 315.613 603.594 310.355 603.474 305.309ZM487.54 403.581L459 480.822C453.521 495.564 449.192 509.904 442.024 523.94C434.29 536.255 432.466 538.35 422.12 548.424C417.4 552.442 412.432 556.786 407.276 560.199C395.139 567.548 383.318 573.218 369.19 575.789C348.678 579.521 327.331 578.505 308.053 570.168L308.117 621.552L444.525 621.827C444.486 616.344 443.942 607.665 445.646 602.709L446.341 602.18C448.804 604.777 448.03 617.614 447.987 621.705L577.084 621.882C577.019 617.278 576.33 605.855 577.925 602.083L578.593 601.614C579.414 601.911 579.884 601.86 579.993 602.476C581.005 608.188 580.288 616.054 580.458 621.871L714.42 621.524C714.413 604.152 714.561 586.533 714.359 569.181C686.557 580.002 660.108 582.666 631.961 570.223C625.816 567.478 619.895 564.257 614.251 560.591C609.193 557.043 604.402 553.13 599.914 548.884C591.717 539.552 588.279 536.389 581.907 525.007C577.718 516.645 572.678 502.822 569.114 493.77L544.159 428.803C542.367 424.149 536.527 406.695 534.589 403.745C533.699 403.556 532.953 403.408 532.049 403.264L531.277 403.146C529.503 400.97 530.022 348.663 530.013 341.652C518.228 341.271 504.895 341.527 492.988 341.486C492.981 360.58 493.669 384.004 492.823 402.721C491.137 403.044 489.252 403.305 487.54 403.581ZM574.371 246.165C560.826 247.776 554.018 255.553 552.898 268.937C542.637 268.962 533.797 266.142 525.747 273.886C517.461 281.855 516.65 298.311 530.273 301.218C541.271 302.363 555.738 301.695 566.911 301.704L593.512 301.835C597.574 301.87 606.741 302.17 610.318 301.453C612.673 300.964 614.834 299.8 616.538 298.103C619.59 295.017 620.826 290.595 620.673 286.336C620.46 281.155 618.122 276.292 614.209 272.89C608.507 267.998 603.441 269.505 596.769 268.997C595.998 255.334 589.021 246.039 574.371 246.165ZM445.377 246.579C432.083 250.111 429.311 256.69 427.952 269.386C420.451 268.781 414.942 268.478 408.747 273.725C402.008 279.433 399.949 290.152 406.11 297.023C409.896 301.245 415.262 301.717 420.567 301.745C434.163 301.826 447.769 301.587 461.375 301.733C469.083 301.794 476.802 301.799 484.525 301.938C490.906 302.052 497.305 301.959 501.334 296.073C506.303 288.813 503.601 278.854 497.387 273.294C490.476 266.857 480.603 268.833 472.005 269.012C470.692 253.452 461.167 244.879 445.377 246.579ZM415.502 343.317C407.582 367.091 401.956 392.458 394.479 416.417C390.849 428.051 387.022 448.083 381.531 458.152C376.7 467.061 369.267 474.285 360.224 478.86C352.597 482.648 344.155 484.499 335.644 484.25C331.047 506.317 330.375 527.156 330.571 549.7C330.628 556.266 330.603 567.046 331.292 573.428C350.143 576.791 373.384 573.48 390.77 565.509C436.208 543.946 442.858 516.695 458.191 473.445C465.333 453.299 473.757 432.27 480.947 412.07C481.947 409.253 482.921 406.426 483.868 403.591C475.832 403.575 419.373 404.251 416.466 402.842C414.546 397.265 416.31 364.39 415.917 356.08C415.793 353.476 416.376 345.602 415.502 343.317ZM606.611 345.408C606.482 351.885 607.195 400.537 605.538 402.549C600.011 404.188 587.477 403.461 581.314 403.573C567.215 403.829 552.443 403.195 538.407 403.602C544.362 421.831 552.28 440.522 559.145 458.558C564.478 472.796 569.925 486.99 575.484 501.141C579.572 511.427 583.975 523.626 590.252 532.646C599.825 546.4 613.285 557.194 628.152 564.774C650.752 576.245 676.995 578.228 701.062 570.283C720.498 563.846 739.561 554.782 758.79 547.751C760.46 547.141 763.93 546.291 765.604 546.839C762.649 551.29 726.086 564.222 718.107 567.623C717.379 575.218 717.621 584.89 717.602 592.696L717.6 632.731L717.563 741.276C741.392 742.064 768.339 741.456 792.358 741.477C835.264 741.939 878.172 742.001 921.079 741.662C921.812 730.495 921.402 716.038 921.382 704.485L921.514 604.919L921.579 569.396C921.59 564.623 920.853 552.724 922.459 548.885L923.205 548.423C924.24 549.103 924.5 548.94 924.605 550.476C925.1 557.716 924.933 565.732 924.931 572.954L924.962 621.48L966.371 621.593C980.489 608.847 988.121 591.849 989.144 572.905C990.151 553.32 983.34 534.136 970.209 519.57C964.482 513.295 948.125 501.655 940.237 495.377L909.809 470.842C901.904 464.502 892.688 456.736 883.882 452.126C873.546 447.004 856.76 441.21 845.114 441.579C825.309 442.206 799.21 439.106 780.517 445.163C760.863 451.532 739.561 462.718 720.182 470.707C710.606 474.654 701.313 480.416 690.955 482.218C675.966 484.688 659.516 479.459 649.136 468.218C646.005 464.864 643.433 461.029 641.518 456.859C638.815 450.816 634.443 435.215 632.331 428.317L613.454 365.831C612.232 361.913 608.288 348.598 606.611 345.408ZM803.543 368.277C799.071 368.679 796.503 368.629 791.98 368.463L791.834 393.971C791.813 398.957 791.646 403.753 792.086 408.736C792.854 417.444 799.13 417.342 806.136 417.534C806.462 424.48 806.399 431.46 806.41 438.416L835.506 438.436L842.689 438.457L842.591 419.712C832.577 416.855 823.555 405.718 818.447 397.016C807.56 395.836 807.712 387.097 812.366 379.27C810.838 377.757 809.792 376.612 808.398 375.027C807.184 373.647 804.447 368.607 803.543 368.277ZM219.026 368.505C210.551 374.072 215.716 376.38 212.728 381.465L211.966 381.994C207.692 380.605 199.101 376.274 198.335 384.117C197.816 389.435 199.978 391.218 203.844 394.318C206.098 393.912 208.077 393.226 210.069 394.085L210.766 394.943C209.705 398.06 206.17 397.578 203.377 397.617C197.225 411.097 194.848 414.237 181.495 420.978L181.511 439.885L186.875 439.873C196.865 439.836 207.785 440.009 217.698 439.696C217.759 433.651 217.822 428.298 217.46 422.26C214.909 422.217 211.935 422.595 210.163 420.945L210.381 420.213C215.25 418.297 230.279 420.843 231.955 415.197C233.704 409.305 233.414 383.841 232.77 378.304C230.681 376.91 228.773 379.196 227.492 374.148C226.142 368.831 224.309 368.275 219.026 368.505ZM816.702 380.529C809.664 385.934 810.809 394.231 820.327 393.428C828.174 388.502 825.29 379.426 816.702 380.529ZM175.317 443.208C148.14 444.982 138.964 451.216 118.772 467.496L95.0567 486.588C82.7332 496.412 62.3547 510.423 52.2838 521.731C28.4668 548.473 30.8591 600.461 61.815 621.642L99.1664 621.689C99.0947 613.304 98.0648 551.533 99.7305 547.859L100.562 547.53C103.718 549.97 102.388 566.058 102.388 570.75L102.464 621.791L192.875 621.65L304.886 621.647C304.813 604.222 304.557 586.462 304.707 569.064C290.851 563.203 276.884 557.277 262.892 551.74C261.257 551.092 258.846 549.321 257.949 547.746L258.356 547.143C264.139 547.234 300.784 564.498 309.115 567.494C315.876 569.925 320.441 571.235 327.949 572.878C327.276 546.062 326.476 509.184 332.547 483.413C318.222 476.963 303.244 470.874 288.706 464.644C273.785 458.251 257.329 450.24 241.752 446.14C226.023 442 210.086 442.978 194.007 442.944C188.788 442.932 180.225 442.753 175.317 443.208ZM102.665 684.911C102.635 704.401 102.408 724.24 102.628 743.701L305.007 743.46L305.064 684.951L102.665 684.911Z"/><path fill="white" d="M552.898 268.937C554.018 255.553 560.826 247.776 574.371 246.165C589.021 246.039 595.998 255.334 596.769 268.997C603.441 269.505 608.507 267.998 614.209 272.89C618.122 276.292 620.46 281.155 620.673 286.336C620.826 290.595 619.59 295.017 616.538 298.103C614.834 299.8 612.673 300.964 610.318 301.453C606.741 302.17 597.574 301.87 593.512 301.835L566.911 301.704C555.738 301.695 541.271 302.363 530.273 301.218C516.65 298.311 517.461 281.855 525.747 273.886C533.797 266.142 542.637 268.962 552.898 268.937Z"/><path fill="white" d="M427.952 269.386C429.311 256.69 432.083 250.111 445.377 246.579C461.167 244.879 470.692 253.452 472.005 269.012C480.603 268.833 490.476 266.857 497.387 273.294C503.601 278.854 506.303 288.813 501.334 296.073C497.305 301.959 490.906 302.052 484.525 301.938C476.802 301.799 469.083 301.794 461.375 301.733C447.769 301.587 434.163 301.826 420.567 301.745C415.262 301.717 409.896 301.245 406.11 297.023C399.949 290.152 402.008 279.433 408.747 273.725C414.942 268.478 420.451 268.781 427.952 269.386Z"/><path fill="white" d="M418.994 400.334L419.128 337.831C419.101 332.688 418.637 309.358 419.276 305.534C420.684 304.755 422.747 304.97 424.447 304.973C424.759 335.054 424.88 365.137 424.809 395.22C444.382 395.01 465.06 394.478 484.535 394.841L484.521 336.743C484.53 328.857 484.216 312.466 485.049 305.053C486.754 305.067 488.318 304.834 489.666 305.734C490.285 309.812 490.04 333.736 489.909 339.659C489.473 359.297 490.455 380.93 489.567 400.324C467.439 401.018 441.396 400.404 418.994 400.334Z"/><path fill="#F6AFA4" d="M424.447 304.973C442.41 304.867 467.447 304.223 485.049 305.053C484.216 312.466 484.53 328.857 484.521 336.743L484.535 394.841C465.06 394.478 444.382 395.01 424.809 395.22C424.88 365.137 424.759 335.054 424.447 304.973ZM469.258 317.711C468.276 320.216 467.148 327.97 470.315 329.141C471.367 326.505 472.861 320.309 470.971 317.908L469.258 317.711ZM447.333 328.08C446.72 331.244 446.05 333.561 447.033 336.683C447.724 337.264 447.669 337.332 448.467 337.683C449.945 335.595 450.492 330.265 448.578 328.413L447.333 328.08ZM467.877 341.662C467.393 344.822 466.59 352.15 468.359 354.83C469.113 355.064 469.78 355.297 470.551 355.464C470.878 351.807 471.899 345.265 470.337 342.216C469.143 341.793 469.127 341.756 467.877 341.662ZM469.314 368.012C469.186 371.554 468.683 377.022 469.808 380.26C470.713 381.153 470.672 381.068 471.936 381.322C472.104 378.189 472.909 370.909 471.224 368.628L469.314 368.012Z"/><path fill="#F6AFA4" d="M533.352 305.332C543.128 304.297 561.853 305.283 572.399 304.98C577.57 304.832 599.064 304.708 603.474 305.309C601.801 305.365 600.185 305.229 598.732 305.959C598.059 312.082 598.504 328.277 598.503 335.007L598.476 395.428C579.015 395.247 557.738 394.755 538.391 395.3L537.999 339.679C537.988 329.535 538.389 315.804 537.796 306.061C536.485 305.252 535.048 305.429 533.352 305.332ZM559.014 323.266C556.041 325.092 556.636 328.97 558.583 331.27C560.843 329.539 560.856 324.913 559.014 323.266ZM554.954 348.24C554.852 351.36 554.371 354.98 555.347 357.781C556.706 358.886 555.938 358.435 558.023 358.719C558.101 355.44 558.57 351.971 557.635 348.998C556.274 347.995 557.023 348.406 554.954 348.24ZM571.903 352.177C570.56 354.397 569.766 359.418 571.703 361.427L572.755 361.915C574.431 359.655 574.752 355.185 573.465 352.681L571.903 352.177ZM559.673 370.157C559.51 372.992 558.677 378.81 560.337 380.787L561.605 380.801C562.971 378.422 563.733 372.695 561.764 370.564L559.673 370.157Z"/><path fill="white" d="M533.352 305.332C535.048 305.429 536.485 305.252 537.796 306.061C538.389 315.804 537.988 329.535 537.999 339.679L538.391 395.3C557.738 394.755 579.015 395.247 598.476 395.428L598.503 335.007C598.504 328.277 598.059 312.082 598.732 305.959C600.185 305.229 601.801 305.365 603.474 305.309C603.594 310.355 603.564 315.613 603.506 320.662C603.203 347.104 604.029 373.807 603.147 400.214C599.032 400.452 594.344 400.449 590.227 400.352C571.556 399.915 552.151 401.141 533.589 400.131C533.042 390.094 533.263 377.757 533.231 367.542L533.352 305.332Z"/><path fill="white" d="M470.315 329.141C467.148 327.97 468.276 320.216 469.258 317.711L470.971 317.908C472.861 320.309 471.367 326.505 470.315 329.141Z"/><path fill="white" d="M558.583 331.27C556.636 328.97 556.041 325.092 559.014 323.266C560.856 324.913 560.843 329.539 558.583 331.27Z"/><path fill="white" d="M448.467 337.683C447.669 337.332 447.724 337.264 447.033 336.683C446.05 333.561 446.72 331.244 447.333 328.08L448.578 328.413C450.492 330.265 449.945 335.595 448.467 337.683Z"/><path fill="white" d="M470.551 355.464C469.78 355.297 469.113 355.064 468.359 354.83C466.59 352.15 467.393 344.822 467.877 341.662C469.127 341.756 469.143 341.793 470.337 342.216C471.899 345.265 470.878 351.807 470.551 355.464Z"/><path fill="#D7E4F3" d="M442.024 523.94C449.192 509.904 453.521 495.564 459 480.822L487.54 403.581C489.252 403.305 491.137 403.044 492.823 402.721C493.669 384.004 492.981 360.58 492.988 341.486C504.895 341.527 518.228 341.271 530.013 341.652C530.022 348.663 529.503 400.97 531.277 403.146L532.049 403.264C532.953 403.408 533.699 403.556 534.589 403.745C536.527 406.695 542.367 424.149 544.159 428.803L569.114 493.77C572.678 502.822 577.718 516.645 581.907 525.007C569.136 524.503 553.604 524.307 540.813 524.781C540.666 529.096 540.062 546.467 541.352 549.216C541.661 562.603 543.609 573.191 553.898 582.467C577.556 603.797 607.958 589.526 614.251 560.591C619.895 564.257 625.816 567.478 631.961 570.223C660.108 582.666 686.557 580.002 714.359 569.181C714.561 586.533 714.413 604.152 714.42 621.524L580.458 621.871C580.288 616.054 581.005 608.188 579.993 602.476C579.884 601.86 579.414 601.911 578.593 601.614L577.925 602.083C576.33 605.855 577.019 617.278 577.084 621.882L447.987 621.705C448.03 617.614 448.804 604.777 446.341 602.18L445.646 602.709C443.942 607.665 444.486 616.344 444.525 621.827L308.117 621.552L308.053 570.168C327.331 578.505 348.678 579.521 369.19 575.789C383.318 573.218 395.139 567.548 407.276 560.199C407.322 560.676 407.339 561.04 407.481 561.527C414.087 584.11 433.265 596.66 456.504 590.715C466.172 588.242 472.752 582.426 477.941 573.997C481.205 568.695 485.058 554.364 483.542 548.672L484.004 548.434C485.028 546.436 484.555 528.019 484.525 524.4C470.535 524.053 455.798 524.59 442.024 523.94Z"/><path fill="white" d="M335.644 484.25C344.155 484.499 352.597 482.648 360.224 478.86C369.267 474.285 376.7 467.061 381.531 458.152C387.022 448.083 390.849 428.051 394.479 416.417C401.956 392.458 407.582 367.091 415.502 343.317C416.376 345.602 415.793 353.476 415.917 356.08C416.31 364.39 414.546 397.265 416.466 402.842C419.373 404.251 475.832 403.575 483.868 403.591C482.921 406.426 481.947 409.253 480.947 412.07C473.757 432.27 465.333 453.299 458.191 473.445C442.858 516.695 436.208 543.946 390.77 565.509C373.384 573.48 350.143 576.791 331.292 573.428C330.603 567.046 330.628 556.266 330.571 549.7C330.375 527.156 331.047 506.317 335.644 484.25Z"/><path fill="white" d="M538.407 403.602C552.443 403.195 567.215 403.829 581.314 403.573C587.477 403.461 600.011 404.188 605.538 402.549C607.195 400.537 606.482 351.885 606.611 345.408C608.288 348.598 612.232 361.913 613.454 365.831L632.331 428.317C634.443 435.215 638.815 450.816 641.518 456.859C643.433 461.029 646.005 464.864 649.136 468.218C659.516 479.459 675.966 484.688 690.955 482.218C701.313 480.416 710.606 474.654 720.182 470.707C739.561 462.718 760.863 451.532 780.517 445.163C799.21 439.106 825.309 442.206 845.114 441.579C856.76 441.21 873.546 447.004 883.882 452.126C892.688 456.736 901.904 464.502 909.809 470.842L940.237 495.377C948.125 501.655 964.482 513.295 970.209 519.57C983.34 534.136 990.151 553.32 989.144 572.905C988.121 591.849 980.489 608.847 966.371 621.593L924.962 621.48L924.931 572.954C924.933 565.732 925.1 557.716 924.605 550.476C924.5 548.94 924.24 549.103 923.205 548.423L922.459 548.885C920.853 552.724 921.59 564.623 921.579 569.396L921.514 604.919L921.382 704.485C921.402 716.038 921.812 730.495 921.079 741.662C878.172 742.001 835.264 741.939 792.358 741.477C768.339 741.456 741.392 742.064 717.563 741.276L717.6 632.731L717.602 592.696C717.621 584.89 717.379 575.218 718.107 567.623C726.086 564.222 762.649 551.29 765.604 546.839C763.93 546.291 760.46 547.141 758.79 547.751C739.561 554.782 720.498 563.846 701.062 570.283C676.995 578.228 650.752 576.245 628.152 564.774C613.285 557.194 599.825 546.4 590.252 532.646C583.975 523.626 579.572 511.427 575.484 501.141C569.925 486.99 564.478 472.796 559.145 458.558C552.28 440.522 544.362 421.831 538.407 403.602Z"/><path fill="white" d="M558.023 358.719C555.938 358.435 556.706 358.886 555.347 357.781C554.371 354.98 554.852 351.36 554.954 348.24C557.023 348.406 556.274 347.995 557.635 348.998C558.57 351.971 558.101 355.44 558.023 358.719Z"/><path fill="white" d="M572.755 361.915L571.703 361.427C569.766 359.418 570.56 354.397 571.903 352.177L573.465 352.681C574.752 355.185 574.431 359.655 572.755 361.915Z"/><path fill="white" d="M791.98 368.463C796.503 368.629 799.071 368.679 803.543 368.277C804.447 368.607 807.184 373.647 808.398 375.027C809.792 376.612 810.838 377.757 812.366 379.27C807.712 387.097 807.56 395.836 818.447 397.016C823.555 405.718 832.577 416.855 842.591 419.712L842.689 438.457L835.506 438.436L806.41 438.416C806.399 431.46 806.462 424.48 806.136 417.534C799.13 417.342 792.854 417.444 792.086 408.736C791.646 403.753 791.813 398.957 791.834 393.971L791.98 368.463Z"/><path fill="white" d="M203.844 394.318C199.978 391.218 197.816 389.435 198.335 384.117C199.101 376.274 207.692 380.605 211.966 381.994L212.728 381.465C215.716 376.38 210.551 374.072 219.026 368.505C224.309 368.275 226.142 368.831 227.492 374.148C228.773 379.196 230.681 376.91 232.77 378.304C233.414 383.841 233.704 409.305 231.955 415.197C230.279 420.843 215.25 418.297 210.381 420.213L210.163 420.945C211.935 422.595 214.909 422.217 217.46 422.26C217.822 428.298 217.759 433.651 217.698 439.696C207.785 440.009 196.865 439.836 186.875 439.873L181.511 439.885L181.495 420.978C194.848 414.237 197.225 411.097 203.377 397.617C206.17 397.578 209.705 398.06 210.766 394.943L210.069 394.085C208.077 393.226 206.098 393.912 203.844 394.318Z"/><path fill="white" d="M471.936 381.322C470.672 381.068 470.713 381.153 469.808 380.26C468.683 377.022 469.186 371.554 469.314 368.012L471.224 368.628C472.909 370.909 472.104 378.189 471.936 381.322Z"/><path fill="white" d="M561.605 380.801L560.337 380.787C558.677 378.81 559.51 372.992 559.673 370.157L561.764 370.564C563.733 372.695 562.971 378.422 561.605 380.801Z"/><path fill="white" d="M820.327 393.428C810.809 394.231 809.664 385.934 816.702 380.529C825.29 379.426 828.174 388.502 820.327 393.428Z"/><path fill="#F6AFA4" d="M61.815 621.642C30.8591 600.461 28.4668 548.473 52.2838 521.731C62.3547 510.423 82.7332 496.412 95.0567 486.588L118.772 467.496C138.964 451.216 148.14 444.982 175.317 443.208C180.225 442.753 188.788 442.932 194.007 442.944C210.086 442.978 226.023 442 241.752 446.14C257.329 450.24 273.785 458.251 288.706 464.644C303.244 470.874 318.222 476.963 332.547 483.413C326.476 509.184 327.276 546.062 327.949 572.878C320.441 571.235 315.876 569.925 309.115 567.494C300.784 564.498 264.139 547.234 258.356 547.143L257.949 547.746C258.846 549.321 261.257 551.092 262.892 551.74C276.884 557.277 290.851 563.203 304.707 569.064C304.557 586.462 304.813 604.222 304.886 621.647L192.875 621.65L102.464 621.791L102.388 570.75C102.388 566.058 103.718 549.97 100.562 547.53L99.7305 547.859C98.0648 551.533 99.0947 613.304 99.1664 621.689L61.815 621.642Z"/><path fill="white" d="M442.024 523.94C455.798 524.59 470.535 524.053 484.525 524.4C484.555 528.019 485.028 546.436 484.004 548.434L483.542 548.672C475.268 548.475 424.716 549.584 422.12 548.424C432.466 538.35 434.29 536.255 442.024 523.94Z"/><path fill="white" d="M540.813 524.781C553.604 524.307 569.136 524.503 581.907 525.007C588.279 536.389 591.717 539.552 599.914 548.884C595.968 549.433 584.405 549.156 579.849 549.147C567.017 549.084 554.184 549.107 541.352 549.216C540.062 546.467 540.666 529.096 540.813 524.781Z"/><path fill="#F6AFA4" d="M407.276 560.199C412.432 556.786 417.4 552.442 422.12 548.424C424.716 549.584 475.268 548.475 483.542 548.672C485.058 554.364 481.205 568.695 477.941 573.997C472.752 582.426 466.172 588.242 456.504 590.715C433.265 596.66 414.087 584.11 407.481 561.527C407.339 561.04 407.322 560.676 407.276 560.199Z"/><path fill="#F6AFA4" d="M599.914 548.884C604.402 553.13 609.193 557.043 614.251 560.591C607.958 589.526 577.556 603.797 553.898 582.467C543.609 573.191 541.661 562.603 541.352 549.216C554.184 549.107 567.017 549.084 579.849 549.147C584.405 549.156 595.968 549.433 599.914 548.884Z"/><path fill="#FED4CA" d="M25.1466 625.032L483.074 625.072L637.726 625.026C662.97 625.024 689.354 624.591 714.5 625.003L714.467 681.56L38.326 681.589C35.9928 666.913 29.2284 639.14 25.1466 625.032Z"/><path fill="#FED4CA" d="M924.889 625.014L971.338 625.02C981.247 625.027 992.46 624.833 1002.26 625.391C1000.34 625.545 998.379 625.441 996.821 626.298C995.794 630.328 995.048 634.355 994.266 638.436C991.497 652.877 986.817 667.175 984.479 681.683C964.838 681.391 944.658 681.637 924.972 681.592L924.889 625.014Z"/><path fill="#FED4CA" d="M39.4568 684.92L99.2954 684.894C99.2718 705.065 98.8713 727.112 99.4578 747.105L107.352 747.226C118.316 778.09 140.26 796.937 171.907 804.737C171.705 804.84 171.507 804.95 171.302 805.048C167.833 806.702 160.973 806.143 157.128 806.162C147.176 806.21 107.968 804.992 102.162 807.661C100.151 808.585 98.9031 810.37 98.1202 812.386C96.2688 817.154 96.1072 824.922 98.4067 829.517C99.6555 832.012 101.437 833.427 104.114 834.17C108.537 835.398 113.27 834.692 117.79 834.988C115.658 844.954 113.887 866.276 112.494 877.377C110.723 891.262 109.036 905.157 107.434 919.063C106.643 925.58 105.235 934.176 104.799 940.529C84.9624 939.675 61.8694 941.321 42.491 940.078C51.3326 939.266 72.7151 939.878 82.5306 939.898C80.565 935.186 78.6222 930.182 76.5899 925.604C53.0155 872.499 47.2522 815.015 49.0372 757.471C49.6541 737.587 44.5956 704.785 39.4568 684.92Z"/><path fill="#F6AFA4" d="M102.628 743.701C102.408 724.24 102.635 704.401 102.665 684.911L305.064 684.951L305.007 743.46L102.628 743.701Z"/><path fill="#FED4CA" d="M308.465 684.995L457.5 684.865L457.466 829.905C457.473 836.758 458.331 881.758 457.059 885.778L456.655 885.898L447.754 833.995C445.815 821.69 443.662 809.419 441.296 797.189C436.563 772.479 430.976 753.156 412.366 734.563C406.128 728.45 399.046 723.264 391.335 719.162C363.587 704.057 338.732 706.597 308.428 706.596L308.465 684.995Z"/><path fill="#3768B4" d="M457.5 684.865L563.432 684.983L563.878 836.046C563.894 844.808 563.149 889.489 564.494 894.143C563.333 908.302 558.64 925.949 557.337 940.489C554.563 939.879 533.058 940.22 528.9 940.194C504.914 940.045 480.743 940.6 456.751 940.056C456.088 930.931 456.528 916.693 456.532 907.249C457.817 901.791 457.166 891.446 456.655 885.898L457.059 885.778C458.331 881.758 457.473 836.758 457.466 829.905L457.5 684.865Z"/><path fill="#FED4CA" d="M563.432 684.983L714.214 685.143L714.298 705.311C701.909 705.312 686.081 704.953 674.026 705.914C651.83 707.682 626.774 719.06 610.865 734.928C600.808 745.06 592.909 757.125 587.645 770.394C581.504 786.133 579.003 805.768 576.33 822.702L570.297 859.271C568.488 870.645 566.779 882.925 564.494 894.143C563.149 889.489 563.894 844.808 563.878 836.046L563.432 684.983Z"/><path fill="#FED4CA" d="M924.936 685.277C945.972 684.758 968.671 685.052 989.794 685.118C987.699 685.522 985.981 685.307 984.352 686.606C983.255 688.558 981.165 706.462 980.765 709.615C977.587 733.29 975.64 757.114 974.934 780.991C974.455 794.248 975.214 807.138 974.008 820.364C971.243 850.693 965.31 880.261 954.622 908.829C951.367 917.527 946.78 932.205 942.115 939.89L974.264 939.925C978.17 939.921 987.707 939.688 990.947 940.175C987.31 940.703 920.374 940.555 918.661 939.858L918.259 938.587C914.545 904.112 911.462 869.572 909.012 834.984C912.597 835.048 919.914 835.588 922.793 833.898C929.756 829.812 928.185 810.643 919.9 808.743C915.381 807.706 907.982 807.996 903.211 807.989L867.921 807.969C862.23 807.967 850.862 808.229 845.62 807.229L845.121 806.152C852.93 804.723 861.063 802.543 868.314 799.26C889.679 789.587 909.093 766.971 917.316 745.233C919.756 745.101 922.196 744.957 924.635 744.799C925.135 738.607 924.896 729.519 924.904 723.069L924.936 685.277Z"/><path fill="white" d="M560.751 939.965C566.518 903.003 572.551 866.083 578.847 829.208C581.047 816.159 582.906 803.184 585.297 790.032C589.677 765.937 604.576 742.693 624.162 728.125C652.236 707.244 681.535 708.449 714.499 708.85C714.496 715.386 713.608 739.075 716.068 743.585C719.93 745.649 768.603 744.61 776.28 744.598L853.856 745.063C873.262 745.09 894.537 744.608 913.809 745.083C902.538 771.964 876.789 799.675 845.865 802.446C828.206 804.029 808.496 803.373 790.603 803.451L702.144 803.859C687.844 803.834 673.539 803.727 659.24 803.771C655.825 803.781 645.897 803.118 643.662 805.441C645.134 806.875 649.618 806.991 651.735 806.957C663.466 806.77 675.609 806.539 687.333 806.821C687.048 844.31 676.786 884.65 660.875 918.524C658.078 924.478 652.983 934.824 649.352 940.299C646.893 939.685 632.139 939.944 628.732 939.957L585.035 940.13C578.282 940.155 567.244 940.475 560.751 939.965Z"/><path fill="#AF5C38" d="M308.304 710.004C341.686 709.925 368.128 706.976 397.101 726.722C411.566 736.601 422.921 750.393 429.836 766.487C435.257 778.919 437.55 796.289 440.185 809.878C446.365 841.733 450.475 875.478 456.532 907.249C456.528 916.693 456.088 930.931 456.751 940.056C428.856 940.486 400.059 940.319 372.078 940.487C371.86 938.964 370.058 935.533 369.315 933.929C351.322 895.067 338.724 848.532 334.294 806.023C341.616 805.957 376.386 806.923 380.825 805.583C381.598 804.096 381.334 804.902 381.268 802.961C379.764 801.904 365.634 802.291 362.71 802.297L330.161 802.368L229.712 802.324C212.346 802.333 194.193 802.885 176.884 801.617C170.177 801.126 162.044 798.08 155.913 795.397C134.426 785.996 119.476 769.176 111.346 747.332C176.737 747.432 243.034 747.769 308.384 746.916C308.606 734.929 308.337 722.06 308.304 710.004Z"/><path fill="#F6AFA4" d="M171.907 804.737C186.998 807.224 202.652 806.381 218.06 806.36L284.22 806.268C294.285 806.256 308.197 805.827 317.859 806.33C323.907 813.566 327.947 824.567 319.547 832.273C315.544 835.945 307.248 834.939 301.911 834.86L297.304 834.815C291.623 834.804 255.265 834.205 253.026 835.143L252.707 836.4C252.983 856.325 253.407 876.248 253.981 896.166C254.267 910.54 254.174 926.171 254.885 940.425C273.728 940.421 293.095 940.182 311.894 940.481C313.44 940.572 313.634 940.7 315.092 940.12L315.738 938.513L316.155 940.19C318.518 940.958 363.167 940.548 368.353 940.275L372.078 940.487C400.059 940.319 428.856 940.486 456.751 940.056C480.743 940.6 504.914 940.045 528.9 940.194C533.058 940.22 554.563 939.879 557.337 940.489C559.044 940.504 559.091 940.588 560.751 939.965C567.244 940.475 578.282 940.155 585.035 940.13L628.732 939.957C632.139 939.944 646.893 939.685 649.352 940.299C651.156 940.747 652.528 941.134 654.087 939.944C659.989 940.399 668.544 940.109 674.605 940.087C685.684 940.033 696.763 940.045 707.841 940.122C710.861 924.617 712.355 904.848 714.396 888.976C716.717 870.919 719.167 852.649 721.134 834.57C713.719 834.544 706.944 834.111 704.764 825.25C703.467 819.981 704.854 811.534 707.644 806.923L795.176 806.858C810.077 806.818 830.485 807.233 845.121 806.152L845.62 807.229C850.862 808.229 862.23 807.967 867.921 807.969L903.211 807.989C907.982 807.996 915.381 807.706 919.9 808.743C928.185 810.643 929.756 829.812 922.793 833.898C919.914 835.588 912.597 835.048 909.012 834.984C907.834 834.935 906.059 835.029 904.831 835.06L854.94 835.015C854.604 869.588 854.8 905.435 855.018 940.048L893.893 940.083C897.208 940.085 911.509 940.361 913.952 939.626L914.368 938.602C915.305 940.307 914.622 939.752 916.487 940.32C918.063 939.501 917.523 940.09 918.259 938.587L918.661 939.858C920.374 940.555 987.31 940.703 990.947 940.175C991.949 942.033 992.061 942.549 991.13 944.254C988.12 945.824 944.1 945.301 936.477 945.303L833.089 945.124L253.533 945.34L98.7648 945.29L58.5725 945.334C52.9503 945.379 35.2569 946.941 32.1927 942.971C32.4608 941.277 32.1553 942.079 33.4252 940.615C35.9343 939.769 39.7157 940.057 42.491 940.078C61.8694 941.321 84.9624 939.675 104.799 940.529C106.898 941.234 105.904 941.225 107.874 940.84L108.626 939.608C110.417 940.566 162.685 940.139 168.51 940.138C168.506 936.852 168.578 935.014 168.939 931.739C169.144 934.605 168.626 937.571 169.486 939.595C170.914 940.44 170.685 940.146 172.636 940.124C180.843 940.386 190.482 940.132 198.858 940.126L250.591 940.075C250.293 907.754 248.69 873.189 248.9 841.151C248.73 838.956 248.567 836.916 248.512 834.708L174.484 834.698C174.423 838.098 174.488 845.03 174.076 848.14C173.661 843.408 174.793 838.484 173.388 834.877C171.788 834.115 172.057 834.408 169.976 834.632C167.029 834.873 163.156 834.774 160.171 834.721C147.474 834.498 134.411 835.187 121.763 834.522C120.208 834.486 119.167 834.295 117.79 834.988C113.27 834.692 108.537 835.398 104.114 834.17C101.437 833.427 99.6555 832.012 98.4067 829.517C96.1072 824.922 96.2688 817.154 98.1202 812.386C98.9031 810.37 100.151 808.585 102.162 807.661C107.968 804.992 147.176 806.21 157.128 806.162C160.973 806.143 167.833 806.702 171.302 805.048C171.507 804.95 171.705 804.84 171.907 804.737ZM773.622 834.943L770.776 834.972C769.18 836.805 770.893 892.799 769.925 901.175C769.486 894.693 769.652 886.664 769.636 880.079C769.733 865.044 769.715 850.009 769.581 834.975L724.96 834.898C722.575 856.834 719.949 878.744 717.082 900.623C715.593 912.6 714.075 928.362 711.944 940.02L769.469 939.986C769.559 936.664 769.543 930.866 769.919 927.746L769.976 928.388C770.268 931.955 769.411 937.886 771.146 939.903C772.978 939.885 772.379 940.256 773.35 939.3L773.7 938.062L773.874 939.268C774.073 939.461 774.271 939.654 774.47 939.847C795.743 939.92 831.023 940.015 851.045 940.02L850.992 906.741C850.983 901.575 850.737 893.834 851.228 888.941C852.746 892.507 850.79 932.237 852.023 940.048L853.178 940.421C855.524 937.308 854.428 921.264 854.434 916.663C854.494 898.63 854.455 880.598 854.317 862.566C854.297 858.449 854.911 838.846 854.21 835.726C852.892 834.565 853.33 834.934 850.978 835.012L773.622 834.943Z"/><path fill="#FED4CA" d="M317.859 806.33L330.919 806.378C336.641 849.304 348.352 901.595 368.353 940.275C363.167 940.548 318.518 940.958 316.155 940.19L315.738 938.513C314.781 926.649 312.347 911.929 310.659 899.918C307.584 878.254 304.668 856.567 301.911 834.86C307.248 834.939 315.544 835.945 319.547 832.273C327.947 824.567 323.907 813.566 317.859 806.33Z"/><path fill="#FED4CA" d="M690.927 806.914L707.644 806.923C704.854 811.534 703.467 819.981 704.764 825.25C706.944 834.111 713.719 834.544 721.134 834.57C719.167 852.649 716.717 870.919 714.396 888.976C712.355 904.848 710.861 924.617 707.841 940.122C696.763 940.045 685.684 940.033 674.605 940.087C668.544 940.109 659.989 940.399 654.087 939.944C658.192 930.404 663.836 920.597 668.167 910.408C682.003 877.587 689.717 842.512 690.927 806.914Z"/><path fill="#F4793D" d="M117.79 834.988C119.167 834.295 120.208 834.486 121.763 834.522C120.162 844.403 119.217 855.008 118.026 865.001L112.269 911.19C111.465 917.725 110.069 934.092 108.626 939.608L107.874 940.84C105.904 941.225 106.898 941.234 104.799 940.529C105.235 934.176 106.643 925.58 107.434 919.063C109.036 905.157 110.723 891.262 112.494 877.377C113.887 866.276 115.658 844.954 117.79 834.988Z"/><path fill="#FED4CA" d="M121.763 834.522C134.411 835.187 147.474 834.498 160.171 834.721C163.156 834.774 167.029 834.873 169.976 834.632C170.089 866.937 168.787 899.669 168.939 931.739C168.578 935.014 168.506 936.852 168.51 940.138C162.685 940.139 110.417 940.566 108.626 939.608C110.069 934.092 111.465 917.725 112.269 911.19L118.026 865.001C119.217 855.008 120.162 844.403 121.763 834.522Z"/><path fill="#F4793D" d="M169.976 834.632C172.057 834.408 171.788 834.115 173.388 834.877C174.793 838.484 173.661 843.408 174.076 848.14C173.814 878.804 173.334 909.466 172.636 940.124C170.685 940.146 170.914 940.44 169.486 939.595C168.626 937.571 169.144 934.605 168.939 931.739C168.787 899.669 170.089 866.937 169.976 834.632Z"/><path fill="#FED4CA" d="M248.512 834.708C248.567 836.916 248.73 838.956 248.9 841.151C248.69 873.189 250.293 907.754 250.591 940.075L198.858 940.126C190.482 940.132 180.843 940.386 172.636 940.124C173.334 909.466 173.814 878.804 174.076 848.14C174.488 845.03 174.423 838.098 174.484 834.698L248.512 834.708Z"/><path fill="#FED4CA" d="M252.707 836.4L253.026 835.143C255.265 834.205 291.623 834.804 297.304 834.815C302.467 869.995 307.331 905.218 311.894 940.481C293.095 940.182 273.728 940.421 254.885 940.425C254.174 926.171 254.267 910.54 253.981 896.166C253.407 876.248 252.983 856.325 252.707 836.4Z"/><path fill="#F4793D" d="M297.304 834.815L301.911 834.86C304.668 856.567 307.584 878.254 310.659 899.918C312.347 911.929 314.781 926.649 315.738 938.513L315.092 940.12C313.634 940.7 313.44 940.572 311.894 940.481C307.331 905.218 302.467 869.995 297.304 834.815Z"/><path fill="#FED4CA" d="M769.581 834.975C769.715 850.009 769.733 865.044 769.636 880.079C769.652 886.664 769.486 894.693 769.925 901.175C769.764 906.863 769.388 922.516 769.919 927.746C769.543 930.866 769.559 936.664 769.469 939.986L711.944 940.02C714.075 928.362 715.593 912.6 717.082 900.623C719.949 878.744 722.575 856.834 724.96 834.898L769.581 834.975Z"/><path fill="#F4793D" d="M769.925 901.175C770.893 892.799 769.18 836.805 770.776 834.972L773.622 834.943C773.335 869.316 773.361 903.69 773.7 938.062L773.35 939.3C772.379 940.256 772.978 939.885 771.146 939.903C769.411 937.886 770.268 931.955 769.976 928.388L769.919 927.746C769.388 922.516 769.764 906.863 769.925 901.175Z"/><path fill="#FED4CA" d="M773.622 834.943L850.978 835.012L851.048 870.42C851.055 875.478 850.825 884.161 851.228 888.941C850.737 893.834 850.983 901.575 850.992 906.741L851.045 940.02C831.023 940.015 795.743 939.92 774.47 939.847C774.271 939.654 774.073 939.461 773.874 939.268L773.7 938.062C773.361 903.69 773.335 869.316 773.622 834.943Z"/><path fill="#F4793D" d="M850.978 835.012C853.33 834.934 852.892 834.565 854.21 835.726C854.911 838.846 854.297 858.449 854.317 862.566C854.455 880.598 854.494 898.63 854.434 916.663C854.428 921.264 855.524 937.308 853.178 940.421L852.023 940.048C850.79 932.237 852.746 892.507 851.228 888.941C850.825 884.161 851.055 875.478 851.048 870.42L850.978 835.012Z"/><path fill="#FED4CA" d="M854.94 835.015L904.831 835.06C906.583 858.334 908.632 881.585 910.977 904.807C911.992 915.285 912.867 928.316 914.368 938.602L913.952 939.626C911.509 940.361 897.208 940.085 893.893 940.083L855.018 940.048C854.8 905.435 854.604 869.588 854.94 835.015Z"/><path fill="#F4793D" d="M904.831 835.06C906.059 835.029 907.834 834.935 909.012 834.984C911.462 869.572 914.545 904.112 918.259 938.587C917.523 940.09 918.063 939.501 916.487 940.32C914.622 939.752 915.305 940.307 914.368 938.602C912.867 928.316 911.992 915.285 910.977 904.807C908.632 881.585 906.583 858.334 904.831 835.06Z"/></svg>