<?xml version="1.0" encoding="utf-8" ?><svg xmlns="http://www.w3.org/2000/svg" xmlns:xlink="http://www.w3.org/1999/xlink" width="1024" height="1024" viewBox="0 0 1024 1024"><path fill="#1F405A" d="M635.644 33.6804C649.055 41.1122 653.477 49.2343 655.742 64.2835C667.201 55.6279 670.093 49.9298 675.186 36.9081C680.286 50.9405 682.264 64.4804 679.87 79.2671C700.3 68.3982 707.883 62.0929 720.659 42.5851C723.385 62.8764 720.731 71.1018 712.432 89.2213C738.141 83.1837 746.79 79.481 767.205 62.2228C761.73 83.2281 749.64 104.378 731.647 116.748C708.685 132.534 683.938 133.383 657.219 130.203C650.395 129.391 642.844 129.074 636.108 127.879C645.065 139.53 651.979 152.618 656.553 166.585C665.17 193.04 663.861 214.858 651.307 239.37C655.318 243.62 659.209 249.421 662.602 254.229C677.409 275.213 688.7 300.585 694.075 325.775C705.785 380.648 702.577 435.17 671.154 483.097C666.459 490.307 661.351 497.239 655.856 503.859C651.426 509.113 644.308 516.588 640.797 522.351C645.96 523.649 664.046 525.364 669.742 525.97C686.771 527.78 702.536 529.502 719.494 532.362L719.509 485.538C719.405 450.143 718.524 434.321 749.122 410.407C749.426 401.993 749.317 393.195 749.327 384.745C734.319 366.689 767.465 366.07 777.454 366.061C778.563 352.157 779.597 338.247 780.556 324.331C774.166 321.036 774.44 317.369 777.53 311.438C786.493 304.816 812.147 304.104 821.821 310.732C824.655 312.674 824.485 318.92 824.609 322.189C823.42 322.779 821.573 323.498 820.301 324.034C821.026 339.754 821.533 359.764 823.259 375.26C856.905 399.593 849.306 430.077 850.016 466.723C850.56 494.817 849.578 523.118 850.147 551.214C867.184 555.154 886.029 556.287 902.518 562.527C937.435 575.742 910.804 598.179 898.848 614.65C930.66 620.875 956.246 634.183 979.402 657.169C986.142 663.861 1000.73 680.713 1001.31 691.155C1001.66 697.376 993.05 697.214 988.62 697.262C950.689 697.676 915.534 705.335 887.386 732.43C889.937 739.272 894.813 748.308 897.824 755.396C903.867 769.618 906.25 779.839 909.013 794.638C912.082 795.7 915.1 796.909 918.054 798.259C936.452 806.864 949.743 824.554 956.404 843.365C964.113 865.134 964.345 890.619 954.365 911.736C947.961 925.287 939.19 929.479 925.585 934.128C892.869 945.306 859.925 955.744 827.16 966.767C809.815 972.705 792.389 978.404 774.887 983.864C766.581 986.449 753.892 990.705 745.56 991.731C735.149 993.013 724.589 991.283 715.131 986.747C679.368 969.295 663.993 914.236 681.722 879.315C693.776 855.57 712.939 851.154 736.379 843.812C748.326 840.084 760.241 836.254 772.123 832.323C782.69 829.144 793.727 825.165 804.296 821.728L854.888 805.418C831.306 800.846 802.438 791.4 781.034 780.45C772.563 775.638 760.826 768.439 757.755 758.644C755.675 752.007 761.019 745.104 764.617 739.991C768.183 734.925 771.57 730.157 774.687 724.673C663.041 710.522 550.421 705.558 437.963 709.832C400.504 710.824 363.086 713.012 325.767 716.394C301.868 718.459 273.531 721.2 249.905 725.084C255.955 735.875 271.034 748.992 265.165 762.397C255.007 785.592 225.371 793.799 203.826 800.836C184.054 807.295 163.859 813.387 145.163 821.323C137.172 824.652 129.495 828.692 122.225 833.393C118.11 836.03 104.484 846.514 99.8659 844.064C94.7556 841.352 98.4577 828.075 99.2653 823.127C102.63 802.509 109.743 782.589 118.832 763.815C123.737 753.723 129.566 743.852 135.052 734.099C115.124 706.141 64.6699 694.013 32.2251 695.925C15.5063 696.91 23.1477 683.597 28.6635 675.36C46.048 649.607 71.213 630.089 100.481 619.658C108.836 616.753 115.429 615.407 123.992 613.68C101.807 585.792 88.2843 566.767 136.534 558.725C143.91 557.496 151.229 556.853 158.686 556.201C142.133 544.172 129.239 523.77 123.047 504.493C120.884 497.639 119.395 490.591 118.599 483.448C117.234 471.274 117.084 439.192 122.189 427.865C125.198 421.189 144.082 414.387 152.018 412.674C172.89 408.169 209.839 402.102 229.242 411.909C237.294 415.978 240.907 437.533 242.793 446.015C262.018 441.81 280.41 446.609 284.868 468.213C286.92 478.221 284.891 488.634 279.232 497.139C269.783 511.055 253.766 515.059 238.312 518.051C235.367 526.726 230.858 535.097 226.689 543.275C252.953 540.204 279.717 536.141 306.046 532.796C330.912 529.621 355.843 526.981 380.822 524.879C354.772 491.056 329.611 451.001 324.077 407.931C321.911 390.73 321.462 373.356 322.739 356.066C326.583 307.982 343.527 276.003 372.678 238.274C367.664 230.206 364.257 221.244 362.643 211.882C358.066 183.862 373.988 149.308 390.129 126.997C355.234 126.326 319.688 133.85 289.431 113.702C269.075 100.147 262.437 85.3278 257.587 62.2077C272.218 77.7462 286.754 85.5685 308.103 88.9362C305.846 82.3796 304.032 76.1525 303.559 69.1669C303.288 65.1516 303.16 51.3236 305.646 48.43C307.308 50.5965 309.583 54.0009 311.289 55.8438C320.258 65.5337 333.317 73.5897 344.97 79.7845C340.982 63.5883 343.214 53.4609 349.95 38.5938C352.45 52.3963 357.451 57.7756 367.997 66.6331C368.139 51.885 374.629 41.453 387.299 33.9154C388.082 35.1765 386.151 42.5445 385.841 45.0353C382.985 67.9271 407.981 85.381 426.091 93.9651C429.323 93.213 434.695 91.2825 438.183 90.2342C444.304 88.4142 450.502 86.8611 456.758 85.5793C508.02 74.8324 549.085 79.3416 598.798 93.5772C610.855 86.8888 626.877 75.0181 633.857 62.8035C639.812 52.3814 638.56 44.4906 635.644 33.6804ZM381.917 524.671C391.893 523.723 404.259 522.312 414.078 522.495C414.046 525.203 413.969 528.064 414.009 530.758C392.975 533.946 371.926 535.956 350.8 538.364C308.859 543.146 266.604 547.839 224.955 554.757C216.225 556.207 209.09 562.358 200.254 563.736C192.874 564.888 185.27 564.506 177.825 565.021C167.092 565.763 122.105 569.669 116.182 577.011C115.115 578.334 114.816 579.826 115.092 581.477C115.689 585.054 118.314 589.406 121.274 591.526C122.959 592.733 124.987 592.909 127.003 592.985C141.93 593.542 158.531 590.892 173.421 589.128L248.528 579.67C253.225 579.07 271.361 576.439 274.967 576.593L275.413 577.818C240.259 587.102 204.419 593.563 168.236 597.137C154.316 598.429 140.523 599.651 126.572 598.102C130.508 602.488 135.072 609.234 138.194 614.321C152.123 637.017 158.703 659.064 157.314 685.753C157.065 691.317 156.305 696.846 155.043 702.271C169.599 697.696 187.36 695.168 202.455 693.209C225.269 690.347 248.152 688.069 271.082 686.377C278.973 685.724 300.504 683.581 307.595 684.319C290.884 687.702 272.512 690.637 255.514 692.788C221.729 697.062 187.465 704.903 153.767 708.784C151.818 716.443 149.701 724.059 147.418 731.626L150.161 740.511C181.64 720.275 245.876 713.343 283.279 709.225C418.877 695.506 555.428 693.917 691.308 704.476C744.204 708.724 826.363 714.671 873.48 738.029C874.849 736.019 876.228 733.952 877.617 731.962C874.634 724.437 872.092 716.746 870.005 708.925C830.254 701.406 790.418 696.349 750.448 690.27C743.66 689.238 736.848 688.319 730.026 687.547L730.355 686.578C737.028 687.494 749.99 686.71 757.678 687.335C795.151 690.384 832.155 690.359 868.582 700.285C860.673 662.763 872.742 629.142 896.007 599.966C841.426 600.829 800.164 593.601 748.52 574.171L750.166 572.671C761.543 576.132 776.167 578.351 787.925 580.903C825.952 589.155 862.461 592.736 901.281 593.043C905.081 589.051 907.012 585.564 908.727 580.444C906.326 576.956 904.452 574.853 900.276 573.525C890.048 570.272 879.433 568.525 868.905 566.549C845.939 562.219 822.872 558.44 799.725 555.214C751.633 547.843 703.374 541.601 654.989 536.493C643.978 535.376 632.958 534.352 621.93 533.421C616.513 532.978 609.31 532.218 603.976 532.349C604.209 522.21 599.786 514.977 593.655 507.416C591.309 505.19 589.391 503.381 586.871 501.342C591.654 492.218 598.52 483.791 604.889 475.723C626.428 448.439 652.231 424.566 650.993 387.116L650.815 387.575C649.003 392.356 648.006 397.697 646.224 402.35C642.212 412.827 635.387 421.992 628.851 430.994C618.136 424.897 611.341 418.722 604.253 408.721C598.216 425.37 595.425 431.807 584.124 445.922C573.58 439.142 567.76 432.8 560.279 423.169C554.581 439.122 548.452 448.654 535.792 460.322C524.14 450.436 519.993 444.649 511.595 432.059C505.382 444.196 499.546 451.311 489.025 459.766C481.25 452.272 475.349 446.424 470.054 436.692C467.833 432.611 465.88 427.745 463.648 423.959C456.653 433.736 453.049 438.256 443.192 445.794C435.94 438.421 430.591 431.029 426.324 421.561C424.621 417.783 422.737 412.477 420.743 409.024C414.462 417.325 408.616 425.545 399.286 430.622C389.421 422.71 381.232 407.508 377.744 395.483C377.415 394.349 376.093 390.228 374.977 390.244C371.722 398.68 382.608 419.847 386.432 428.714C395.977 450.847 416.32 483.666 434.416 499.732C445.37 497.744 451.208 499.284 457.075 509.338C468.654 486.859 487.119 499.644 493.755 517.992L494.679 517.778C498.777 516.926 521.22 517.951 527.038 518.017C531.734 500.621 548.362 492.706 562.834 505.485C574.782 497.259 582.632 497.837 592.942 508.009C599.954 516.473 602.307 523.969 603.293 534.979C605.404 554.325 586.816 572.608 579.105 546.949C578.363 548.511 577.572 550.048 576.733 551.559C574.839 554.964 572.02 558.635 568.034 559.611C566.085 560.095 564.024 559.778 562.311 558.73C557.94 556.015 556.584 550.299 555.522 545.644C546.254 562.612 535.659 562.917 528.994 543.208C527.404 538.506 527.032 533.331 526.483 528.385C516.159 528.189 505.834 528.045 495.508 527.952L494.538 528.003C494.137 542.292 487.57 552.553 478.698 563.054C473.957 557.609 471.437 553.286 467.807 547.114C464.339 553.39 460.184 557.878 455.509 563.238C451.122 558.1 446.71 552.827 442.265 547.755C439.081 553.747 436.568 558.107 432.466 563.503C419.091 550.935 414.855 539.464 415.371 521.473C411.249 521.036 407.743 521.281 403.629 521.46C396.662 514.296 393.662 507.783 388.848 499.39C371.369 468.918 365.164 442.69 362.684 407.761C356.999 448.292 365.681 487.725 381.917 524.671ZM817.93 432.673C825.635 445.733 831.54 443.42 843.502 436.655C842.37 410.311 840.501 395.395 817.74 378.516C816.786 373.643 815.069 340.161 813.952 339.155C804.151 341.363 795.976 341.833 786.08 339.352C785.277 347.098 784.638 360.095 783.44 367.207C793.229 369.431 802.398 372.96 793.578 383.913C793.521 392.491 793.521 401.069 793.579 409.648C802.651 416.333 811.826 423.038 817.93 432.673ZM378.33 247.302C366.856 261.886 353.204 282.411 345.994 299.493C332.807 330.737 329.496 369.296 333.576 402.751C334.515 410.448 340.481 441.053 344.127 447.504C342.477 438.227 340.758 429.848 339.869 420.421C336.48 381.335 341.553 341.977 354.743 305.028C356.472 300.193 361.938 284.949 364.487 280.957C363.229 286.587 361.807 292.179 360.223 297.726C346.965 344.752 338.619 405.492 349.644 453.809C351.049 459.969 354.071 470.584 356.876 475.921C355.24 467.336 353.255 456.978 352.653 448.287C348.237 384.555 363.504 312.362 382.987 252.116C381.713 250.745 379.694 248.421 378.33 247.302ZM469.92 311.946C465.753 340.187 464.189 351.045 483.072 374.101C506.364 351.36 506.188 343.806 511.323 312.237L511.491 312.792C512.864 317.507 513.359 322.608 514.553 327.346C519.745 347.958 524.612 360.492 541.188 373.72C552.671 358.823 558.423 349.39 555.915 330.192C555.096 324.154 554.038 318.151 552.744 312.197L555.418 316.534C569.49 338.952 565.369 352.529 593.161 368.967C613.955 342.165 605.269 324.273 597.511 294.277C600.194 298.67 605.345 307.004 607.431 311.371C617.026 331.464 619.532 335.712 637.8 347.627C643.636 338.382 650.072 330.981 646.484 319.659C640.597 301.084 637.49 280.359 631.863 261.938C612.696 278.389 588.96 288.26 563.392 286.23C544.355 284.828 526.353 277.028 512.311 264.098C473.595 297.617 426.549 291.25 389.429 259.132C384.876 277.291 377.113 302.461 375.799 321.376C375.351 327.831 385.024 342.402 388.815 348.105C401.938 337.979 408.034 331.667 415.38 316.167C417.492 311.712 421.018 304.184 423.486 300.28C419.332 332.299 408.386 339.062 428.668 369.899C448.032 355.853 452.843 348.642 462.858 326.66C464.346 323.394 468.193 314.907 469.92 311.946ZM518.887 243.126L510.714 250.38C507.767 247.511 504.363 244.35 501.546 241.415C486.355 257.121 471.363 264.864 449.252 265.187C428.397 265.327 408.344 257.155 393.527 242.478C371.881 221.275 370.401 198.784 373.614 170.45C371.819 171.319 371.11 180.887 370.76 183.008C364.284 222.252 388.451 259.535 426.293 271.001C448.174 277.631 471.286 276.351 492.417 267.761C499.647 264.834 506.074 261.218 512.922 258.353C520.392 261.957 530.445 267.004 538.075 269.577C557.33 276.069 579.725 277.069 599.036 270.4C619.913 263.105 637.064 247.859 646.756 227.981C657.176 206.396 656.923 182.58 649.521 159.851C649.207 158.886 648.9 158.537 648.281 157.776C654.451 184.713 656.756 204.437 640.801 229.644C629.531 247.249 611.806 259.731 591.434 264.409C564.412 270.37 538.483 262.315 518.887 243.126ZM526.754 145.887C535.814 138.607 544.83 131.268 554.048 124.188C565.24 115.591 577.336 108.26 588.711 99.9148C571.314 97.3265 554.625 97.1745 537.122 97.0575C520.843 96.9209 504.563 96.9739 488.286 97.2166L452.208 98.8114C447.173 99.0801 439.38 99.3801 434.673 100.132C438.9 103.693 444.223 107.664 448.833 110.741C467.734 123.356 484.695 138.419 503.328 151.325C511.963 157.305 519.839 151.57 526.754 145.887ZM407.219 127.86C392.882 150.185 384.635 169.226 390.085 196.381C396.356 227.625 427.057 245.621 457.496 237.66C469.587 234.547 477.662 230.628 488.151 223.91C490.107 222.464 492.656 220.461 494.672 219.219C492.501 215.056 489.825 210.221 487.92 205.999C455.743 230.727 410.063 201.858 416.71 162.641C418.89 149.779 423.968 141.741 434.444 134.169C423.748 130.932 417.368 130.295 407.219 127.86ZM470.235 148.93C466.718 150.417 464.247 151.937 462.698 155.669C461.605 158.248 461.612 161.161 462.719 163.734C463.829 166.2 465.878 168.121 468.411 169.07C470.843 170.008 472.972 169.927 475.475 169.521C488.641 164.122 482.998 149.898 470.235 148.93ZM579.556 135.888C571.442 139.168 564.71 142.165 556.804 145.757C559.954 146.706 561.91 147.359 564.891 148.81C580.917 156.61 583.125 181.004 565.955 188.914C560.685 191.342 554.368 191.76 548.709 189.61C543.28 187.492 538.961 183.234 536.766 177.836C534.048 171.258 534.967 163.961 536.513 157.22C531.397 159.907 526.49 162.975 521.835 166.398L522.029 172.064C524.562 190.316 545.337 210.247 564.988 207.426C575.413 205.844 584.789 200.2 591.067 191.728C604.395 173.778 599.778 149.504 581.768 137.211C581.212 136.831 580.155 136.124 579.556 135.888ZM512.458 237.188C513.815 233.221 515.118 229.994 516.748 226.121C522.586 212.057 527.59 198.491 521.664 183.892C518.148 186.759 514.171 190.256 510.253 192.412C506.037 189.869 505.059 189.081 502.049 185.005L501.495 184.265L501.168 183.818C498.647 188.01 496.757 191.574 494.538 195.896C498.776 209.213 505.711 224.814 512.458 237.188ZM399.552 419.964C403.123 416.62 405.238 414.39 408.435 410.681C415.168 401.215 419.335 388.207 422.359 376.949C415.777 364.637 412.174 358.181 407.809 344.522C400.685 350.598 395.409 353.834 387.3 358.561C383.092 354.021 381.491 351.708 378.291 346.494C376.793 344.054 371.892 333.968 370.627 332.801C368.934 346.363 366.491 359.935 366.395 373.642C370.933 368.486 374.298 362.76 378.936 357.554C378.249 377.747 385.037 404.39 399.09 419.477L399.552 419.964ZM465.451 145.467C457.668 142.328 449.818 139.357 441.907 136.556C438.609 139.118 435.811 141.288 433.044 144.418C420.364 158.763 419.822 178.504 431.674 193.518C438.253 201.745 447.803 207.055 458.263 208.302C467.618 209.309 476.992 206.582 484.347 200.715C493.1 193.639 501.547 177.08 499.23 165.766C494.868 160.991 489.277 158.317 483.613 155.22C487.341 162.138 489.462 168.578 487.184 176.563C485.557 182.232 481.641 186.965 476.377 189.623C458.086 198.99 436.292 180.807 444.564 160.966C448.783 150.846 455.634 147.609 465.451 145.467ZM614.891 128.198C605.777 129.034 596.86 131.251 587.97 133.391C599.323 143.489 603.922 150.413 605.353 165.868C608.851 203.665 562.23 230.184 533.31 203.804C530.902 209.339 528.49 215.103 525.899 220.538C527.466 221.547 530.721 223.771 532.236 224.602C552.16 236.031 575.314 242.406 597.584 236.106C641.114 223.792 643.763 166.332 620.589 134.637C619.156 132.678 617.335 129.581 615.396 128.211L614.891 128.198ZM881.624 802.63C875.553 804.459 869.092 806.383 863.126 808.493C889.153 823.896 898.913 844.083 906.811 872.69C912.4 892.935 911.273 912.348 905.479 932.398L905.793 933.231C910.157 932.236 916.703 929.448 921.163 927.94C923.522 919.107 925.892 910.813 926.428 901.48C927.747 878.542 919.339 851.36 908.22 831.245C902.521 820.935 892.406 807.788 881.624 802.63ZM796.608 969.333C806.101 937.801 798.015 903.973 782.762 875.584C776.881 864.586 768.392 855.199 758.039 848.246C756.507 847.223 752.949 844.747 751.19 844.924C745.581 846.933 737.585 849.336 732.401 851.496C774.139 862.093 792.24 933.078 782.649 970.137C782.376 971.188 782.089 972.236 781.789 973.28L781.945 973.876C784.399 973.691 794.181 970.395 796.608 969.333ZM600.581 376.433C605.519 390.468 611.956 410.275 625.877 418.204L626.95 418.202L627.97 417.166C639.581 403.057 644.519 384.736 644.508 366.556C644.504 359.209 631.828 354.836 626.533 350.955C623.603 348.808 618.423 344.981 615.439 343.285C611.557 356.074 607.432 364.913 600.581 376.433ZM824.667 445.845C828.43 467.925 824.083 521.743 825.842 546.683C826.145 546.91 826.448 547.137 826.751 547.364L828.967 547.66C833.66 548.498 838.542 549.297 843.182 550.33C843.48 522.856 843.529 495.38 843.329 467.905C843.308 464.567 843.399 444.756 843.04 443.178L842.493 443.001C835.025 446.152 832.846 446.142 824.667 445.845ZM231.388 429.976C213.245 445.489 188.172 449.049 165.068 449.277C152.526 449.401 137.025 448.628 125.923 442.417C123.685 461.64 124.025 485.284 130.901 503.244C133.323 509.57 136.409 515.506 139.574 521.481C141.163 524.13 142.901 527.195 144.557 529.758C173.363 538.282 201.483 535.118 228.745 521.703C228.945 521.605 229.725 521.113 229.968 520.962C236.637 495.057 242.803 471.684 235.798 444.822C234.91 441.415 233.243 432.553 231.388 429.976ZM924.174 852.858C931.744 881.07 934.657 895.567 927.988 924.885C929.378 925.679 928.551 925.238 930.113 924.923C938.078 923.319 943.533 916.962 947.389 910.192C957.818 891.886 956.939 869.987 952.006 850.15C951.637 848.661 950.864 846.628 950.309 845.209L949.698 845.001C941.184 847.878 932.783 850.297 924.174 852.858ZM548.117 168.901C563.642 167.184 564.739 152.554 551.151 148.403C547.354 150.291 539.782 153.485 538.557 157.707C536.819 163.699 542.857 168.31 548.117 168.901ZM663.788 481.374C685.853 431.558 674.94 342.896 659.124 292.895C658.487 290.824 653.346 275.263 653.389 274.274L653.839 274.069C657.194 281.363 659.908 285.926 663.056 293.972C678.721 334.015 684.172 372.803 683.437 415.408C683.376 420.464 683.147 425.518 682.75 430.56C682.446 434.046 680.213 449.011 680.835 451.417C696.167 392.445 692.866 323.412 660.732 270.748C657.203 264.965 649.507 252.883 644.473 248.911C642.467 250.948 640.493 253.016 638.552 255.114C651.177 294.621 660.479 335.114 666.362 376.17C669.669 398.152 672.168 416.993 671.151 439.468C670.416 455.734 667.299 466.153 663.788 481.374ZM988.018 686.476C964.569 650.099 935.284 634.269 894.294 625.095C893.721 624.97 893.147 624.849 892.572 624.735C876.579 653.761 873.19 679.615 882.498 711.626C883.23 714.151 884.016 716.66 884.854 719.152C907.93 702.7 917.816 697.077 945.799 690.611C960.944 687.809 972.495 686.469 988.018 686.476ZM158.12 432.179C184.621 427.693 198.735 426.551 225.151 427.029C226.923 424.435 228.876 422.306 228.64 419.199C224.639 412.222 197.673 413.172 190.495 413.75C178.29 414.88 124.956 420.28 126.452 436.698C130.494 441.877 151.156 433.655 158.12 432.179ZM620.599 521.43C626.845 521.725 633.355 521.901 639.541 522.682C656.238 492.655 666.212 461.028 664.376 426.476C664.033 420.015 663.721 410.528 662.533 404.336L662.098 402.562L661.729 402.486C661.521 404.749 661.458 405.992 661.528 408.259C660.886 455.539 644.71 482.939 620.599 521.43ZM253.75 760.773C238.527 756.57 220.682 757.948 204.813 758.9C190.086 759.783 172.183 766.374 158.319 761.02C150.498 758 145.857 750.017 141.356 746.782C126.535 773.551 114.137 796.751 109.848 827.793C138.374 810.062 160.623 802.632 192.615 792.639C214.144 785.793 239.684 779.428 253.75 760.773ZM159.722 747.948C162.811 749.799 165.34 751.36 168.615 752.87C172.169 752.301 175.875 751.764 179.385 751.034C199.635 747.014 231.345 744.317 251.555 748.287C248.666 743.66 240.853 730.583 235.954 727.541C235.568 727.301 233.885 727.581 233.373 727.661C208.669 731.606 182.079 736.172 159.722 747.948ZM803.204 966.56C803.457 966.662 803.71 966.763 803.963 966.865C831.828 958.185 872.596 944.129 898.896 935.47C907.395 911.799 907.498 887.287 898.369 863.554C898.172 863.042 897.871 862.522 897.49 862.126C867.698 869.809 837.688 880.377 808.221 889.365C804.436 890.52 800.332 891.809 796.621 893.133C805.039 918.986 809.46 939.413 803.204 966.56ZM481.246 386.04C470.408 374.85 465.801 365.769 460.606 351.38C452.282 361.88 440.633 374.877 427.809 380.275C427.412 380.442 425.538 380.066 425 379.987C424.447 381.043 426.457 395.449 426.886 397.794C428.965 409.17 435.348 424.648 443.226 433.143C445.574 430.978 447.792 428.871 450.002 426.562C461.685 414.355 464.54 395.832 475.109 383.112C471.287 405.789 465.336 416.194 480.632 437.981C483.472 442.025 485.683 444.377 489.317 447.826C503.805 431.824 506.448 426.107 509.823 404.671L510.377 403.597C512.683 405.58 517.005 433.659 535.681 448.077C558.414 423.278 551.649 415.332 548.033 384.766C560.196 402.189 565.089 421.202 583.259 433.861C598.425 411.23 595.493 406.057 598.045 380.87C582.686 376.939 572.595 365.103 563.456 353.401C557.82 366.203 553.157 375.498 543.095 385.723C532.085 378.416 525.365 372.997 518.141 361.474C516.797 359.33 513.222 352.968 512.03 351.27C503.787 367.468 495.571 375.607 481.246 386.04ZM641.285 358.771C645.472 362.244 652.629 368.713 655.963 373.063L660.516 380.019C659.269 373.304 655.445 342.211 652.294 339.263C648.814 345.665 645.099 352.605 641.285 358.771ZM818.199 519.999C793.492 532.441 761.516 534.306 735.43 525.675C732.475 524.668 729.548 523.582 726.652 522.42C726.635 525.983 726.572 529.642 726.697 533.193L731.613 533.638L792.596 542.057C800.218 543.187 811.951 544.577 819.051 546.33C819.07 542.593 819.511 522.077 818.583 520.064L818.199 519.999ZM814.223 324.341C802.818 325.269 798.663 325.484 787.163 324.428C786.47 327.778 786.523 329.145 786.502 332.555C797.207 335.706 803.598 336.157 814.234 331.983C814.487 328.948 814.391 327.32 814.223 324.341ZM781.848 315.499C788.525 316.832 795.314 317.518 802.123 317.545C807.735 317.284 813.326 316.684 818.865 315.746C811.878 313.149 808.065 312.412 800.574 312.199C793.167 312.666 788.851 312.847 781.848 315.499ZM36.3826 685.041C49.8546 684.915 72.9167 686.018 85.1142 690.842C105.163 696.908 124.086 705.782 138.518 721.33C141.412 707.896 145.001 695.378 146.106 681.585C147.673 662.033 141.92 643.776 132.471 626.829C131.86 625.732 130.968 624.774 129.952 624.048C128.907 623.985 129.001 623.883 128.034 624.128C91.2082 631.606 61.1946 648.18 39.4973 680.002C38.4649 681.516 37.2474 683.429 36.3826 685.041ZM766.403 372.196C761.331 372.757 756.92 373.451 751.993 374.895C759.736 375.056 769.807 375.544 777.371 375.244C781.471 375.13 786.097 375.107 790.146 374.801C782.275 372.227 774.718 370.964 766.403 372.196ZM158.204 544.93C168.018 553.543 176.883 558.291 190.355 557.525C199.98 556.978 208.096 554.506 214.602 546.945C217.639 543.414 224.702 532.38 225.382 528.351L224.965 527.953C198.835 543.559 176.707 541.658 148.418 534.554C151.613 538.4 154.455 541.586 158.204 544.93ZM154.703 442.06C152.853 442 151.865 441.98 150.032 442.144L150.492 442.114L149.27 442.612C151.791 443.607 154.7 443.115 157.366 442.696C159.148 442.595 161.156 442.317 162.946 442.112C169.241 442.046 210.349 437.632 213.432 434.591C211.779 434.309 207.224 435.698 205.369 436.04C192.086 438.488 176.266 441.048 162.819 441.483C159.942 441.56 157.559 441.781 154.703 442.06ZM892.167 803.293C908.191 816.913 913.628 828.198 921.792 847.155L948.105 839.746C934.224 814.691 920.977 801.764 891.343 800.315L889.493 800.68L889.474 801.313C890.332 801.96 891.276 802.717 892.167 803.293ZM244.745 459.776C280.739 449.069 278.763 498.065 249.112 502.944C245.776 503.492 242.337 503.767 241.161 506.902C241.397 509.325 240.969 509.083 242.291 510.454C244.706 510.953 252.632 508.238 255.098 507.216C266.134 502.644 276.189 493.2 278.284 481.029C280.715 467.149 274.232 452.625 258.97 450.67C256.782 450.381 255.596 450.386 253.43 450.663C250.199 451.175 246.752 451.788 243.532 452.224L244.745 459.776ZM255.692 464.186C251.718 464.578 249.179 465.252 245.429 466.72C245.647 478.893 245.189 486.454 242.936 498.549C245.637 497.789 249.048 496.949 251.593 495.906C260.69 490.513 267.081 482.236 264.811 470.798C263.999 466.706 259.617 464.441 255.692 464.186ZM865.311 746.675C845.751 737.889 829.127 733.592 807.995 729.641C801.357 728.4 792.669 727.353 786.379 725.988C782.532 732.651 778.25 738.964 773.997 745.369C800.249 742.667 826.916 745.299 852.476 751.588C858.01 752.461 860.755 749.831 865.311 746.675ZM755.116 982.662C761.443 980.669 768.671 978.225 775.01 976.574C783.663 951.874 782.139 924.747 770.774 901.171C766.886 903.585 760.955 905.883 756.483 906.921L754.341 901.906C759.088 899.898 764.137 898.295 769.031 896.645C760.623 878.672 746.378 854.272 723.173 855.631C709.512 858.569 698.289 863.887 690.495 876.186C670.092 908.38 682.851 958.471 714.368 978.913C725.492 986.128 736.885 987.162 749.595 984.093C751.441 983.64 753.282 983.163 755.116 982.662ZM881.639 746.03C860.21 771.502 854.926 762.391 827.502 758.012C808.148 754.916 788.465 754.449 768.985 756.623C778.267 766.398 786.018 771.087 798.627 776.322C825.278 787.752 845.194 790.653 871.707 798.233C883.179 794.498 886.253 793.934 898.365 793.364C894.406 778.081 889.64 759.763 881.639 746.03ZM786.923 385.21C775.298 387.3 767.622 388.07 755.887 385.235C756.009 393.023 757.891 411.569 751.946 416.498C736.338 429.436 729.477 441.085 726.267 461.045C739.163 464.558 745.384 465.825 758.876 466.956C777.493 467.85 803.79 467.708 818.835 455.221C816.242 436.568 804.49 425.525 790.174 414.719C789.302 414.061 788.426 413.408 787.547 412.76C787.371 403.689 787.28 394.616 787.272 385.543L786.923 385.21ZM818.4 461.946C792.863 475.629 754.76 474.88 727.218 466.743L726.576 466.547C726.499 472.66 725.488 513.61 727.048 517.213L728.379 518.017C749.489 524.454 770.889 527.731 792.873 524.096C802.404 522.521 813.369 520.298 818.878 511.588C819.135 506.4 819.844 463.697 818.4 461.946ZM857.073 811.55L790.229 832.976C781.813 835.698 767.694 839.793 759.815 842.959C776.398 854.864 786.758 868.769 794.282 887.738L798.103 886.551C820.717 879.746 843.283 872.784 865.801 865.668C874.502 862.911 887.318 859.269 895.641 856.174C887.488 837.553 877.699 819.628 857.763 811.818L857.073 811.55Z"/><path fill="#1F405A" d="M324.646 586.695C338.17 585.654 356.246 589.087 351.134 608.457C349.468 614.768 342.046 619.127 336.224 621.684C337.14 622.114 338.049 622.56 338.951 623.02C354.287 630.982 349.714 650.401 336.672 657.855C332.473 660.255 330.226 661.041 325.501 662.339C315.931 663.359 309.793 663.445 300.235 663.502C303.935 641.811 309.636 616.381 314.191 594.662C310.962 595.28 299.663 598.442 302.845 590.956C306.686 587.772 319.222 587.264 324.646 586.695ZM310.647 656.531C318.159 656.072 323.278 656.181 330.076 652.459C345.28 642.489 342.003 628.06 324.53 626.031C322.099 625.771 319.661 625.588 317.218 625.484C315.275 636.313 312.837 645.941 310.647 656.531ZM318.18 619.728C323.772 618.812 328.489 618.331 333.735 616.031C349.6 605.999 343.646 592.471 325.448 593.666C324.283 593.906 322.907 593.894 322.681 594.893C320.917 602.698 320.311 612.096 318.18 619.728Z"/><path fill="#1F405A" d="M631.421 588.103L640.494 588.141C636.547 610.797 625.776 637.096 625.426 660.548C624.502 660.499 623.578 660.439 622.655 660.369C615.205 659.784 616.67 655.446 617.864 649.902C612.632 655.432 608.762 658.993 600.88 659.792C600.745 659.782 600.611 659.773 600.476 659.763L599.805 659.701C568.132 656.979 597.548 587.778 625.158 614.363C627.082 607.171 628.729 594.776 631.421 588.103ZM606.594 652.032C619.141 646.253 620.839 632.313 623.416 619.997C619.37 617.097 617.335 615.696 612.12 616.056C595.242 621.44 587.636 654.077 606.594 652.032Z"/><path fill="#1F405A" d="M664.95 611.174C698.598 610.967 688.686 660.092 659.877 662.686C626.702 662.619 635.642 615.803 664.95 611.174ZM661.061 655.636C678.059 647.277 684.521 617.777 664.802 617.94C647.279 624.551 641.047 656.191 661.061 655.636Z"/><path fill="#1F405A" d="M470.321 580.077L479.05 580.256C476.484 591.019 474.19 605.538 471.797 616.848C490.343 594.893 506.158 607.808 498.874 632.179C497.181 637.841 494.866 650.643 494.265 656.67L494.191 657.448C490.378 657.19 488.634 657.242 484.807 657.518C485.413 650.191 488.261 638.264 489.882 630.71C490.892 626.581 492.723 618.19 488.45 615.852C481.018 611.787 471.635 623.826 469.838 629.487C466.868 638.839 465.545 648.159 464.014 657.588L455.11 657.46C459.658 631.127 465.761 605.964 470.321 580.077Z"/><path fill="#1F405A" d="M430.462 580.743C431.551 580.812 431.479 580.782 432.407 581.353C431.926 586.233 430.335 593.233 429.318 598.285C426.979 609.619 424.553 620.935 422.041 632.232C429.627 623.717 436.396 615.489 444.325 606.995C448.718 607.178 451.193 607.395 455.575 606.983C449.258 614.458 439.719 622.927 432.418 629.786L443.735 649.799L448.289 657.941L438.039 657.964C434.575 651.74 428.404 638.854 424.181 634.098C419.342 641.545 418.805 649.723 417.366 658.484L408.292 658.619C411.345 634.563 419.12 606.261 423.241 581.112L430.462 580.743Z"/><path fill="#1F405A" d="M547.874 618.662C553.82 610.418 565.562 600.831 574.806 609.909C581.484 616.465 576.687 632.28 575.317 640.444C574.287 646.586 573.245 651.937 572.902 658.168L563.272 658.029C564.641 649.114 566.353 640.255 568.406 631.472C569.217 626.886 570.432 621.353 567.825 617.189C565.148 612.912 559.92 614.144 556.634 616.858C545.933 625.696 542.707 644.614 541.135 657.511L531.129 657.437C536.357 638.612 537.396 624.188 541.339 606.607L549.872 606.525C549.313 610.489 548.535 614.69 547.874 618.662Z"/><path fill="#1F405A" d="M402.718 608.261L403.087 608.201C402.69 607.702 395.835 654.017 395.385 659.362C392.891 659.398 390.112 659.566 387.598 659.669C387.966 656.019 387.937 650.977 388.023 647.214C383.264 654.407 369.967 669.013 360.823 657.063C356.04 650.813 359.71 636.808 361.391 629.235C362.583 623.175 364.163 615.96 364.674 609.887L374.166 609.824C372.919 615.73 359.967 660.441 376.97 651.684C389.442 645.261 391.92 621.942 394.31 608.885C396.607 608.52 400.3 608.408 402.718 608.261Z"/><path fill="#1F405A" d="M701.482 613.889C703.7 614.165 707.897 615.186 710.24 615.692C708.994 619.464 707.999 623.277 706.96 627.109C709.986 623.384 720.448 611.859 725.499 615.933C727.006 619.349 725.646 621.899 724.555 625.611C712.684 625.068 710.072 629.542 705.947 639.684C703.165 647.43 701.322 656.763 699.702 664.899C696.877 664.516 692.994 664.339 690.072 664.125C694.379 645.789 698.926 633.453 701.482 613.889Z"/><path fill="#1F405A" d="M518.145 605.76C521.634 606.004 524.229 606.09 527.725 606.058C523.863 620.726 520.882 635.972 518.71 650.986C518.485 652.536 518.26 656.332 517.362 657.409C513.553 657.132 511.698 657.256 507.866 657.546C510.438 640.467 514.362 622.592 518.145 605.76Z"/><path fill="#1F405A" d="M522.995 582.446C532.086 582.375 532.718 588.821 527.105 594.734C526.372 594.868 525.63 594.943 524.885 594.959C517.803 595.116 518.141 586.645 522.995 582.446Z"/><path fill="#1F405A" d="M585.246 331.351C593.479 332.066 596.151 340.48 590.631 346.578C582.032 346.71 579.48 337.38 585.246 331.351Z"/><path fill="#1F405A" d="M434.603 331.29C442.851 335.369 440.535 343.847 433.605 348.045C432.374 347.457 431.534 347.031 430.511 346.085C429.139 344.82 428.382 343.024 428.434 341.158C428.569 336.871 431.7 333.922 434.603 331.29Z"/><path fill="#1F405A" d="M536.382 335.439C544.638 338.027 545.574 346.9 538.464 350.251C530.105 348.264 529.061 338.809 536.382 335.439Z"/><path fill="#1F405A" d="M485.3 335.346C494.809 334.947 493.045 344.518 487.788 349.679C479.426 350.977 480.174 340.061 485.3 335.346Z"/><path fill="#1F405A" d="M393.185 310.377C402.762 311.775 399.302 320.77 393.271 324.614C383.884 323.595 387.433 314.129 393.185 310.377Z"/><path fill="#1F405A" d="M628.416 310.428C636.306 310.051 638.924 318.173 634.566 324.302C624.938 326.502 625.14 316.708 628.416 310.428Z"/><path fill="#1F405A" d="M710.621 869.095C716.795 868.491 721.502 869.651 726.562 873.408C739.164 882.763 747.531 904.732 749.829 919.702C751.983 933.729 752.155 958.492 743.301 970.7C740.069 975.156 736.456 976.571 731.318 977.333C686.711 972.181 674.7 882.806 710.621 869.095ZM720.753 948.412C729.186 947.563 735.352 940.065 734.557 931.626C733.761 923.188 726.302 916.975 717.859 917.717C709.339 918.466 703.058 926.006 703.861 934.521C704.664 943.035 712.244 949.269 720.753 948.412Z"/><path fill="#1F405A" d="M717.266 925.704C719.952 925.034 722.79 925.863 724.694 927.871C726.598 929.88 727.274 932.758 726.462 935.404C725.651 938.05 723.478 940.055 720.775 940.65C716.674 941.554 712.608 938.996 711.648 934.908C710.689 930.819 713.192 926.719 717.266 925.704Z"/><path fill="#1F405A" d="M532.484 411.854C534.362 412.052 535.639 412.19 537.133 413.497C538.608 414.799 539.461 416.666 539.48 418.634C539.522 422.223 538.227 424.177 535.783 426.505C526.113 426.813 528.018 417.193 532.484 411.854Z"/><path fill="#1F405A" d="M487.525 411.89C496.176 413.291 495.002 421.829 489.184 426.387C480.927 424.712 481.786 416.483 487.525 411.89Z"/><path fill="#1F405A" d="M579.087 400.693C586.198 402.37 587.372 409.953 581.905 414.852C574.656 413.392 573.705 405.817 579.087 400.693Z"/><path fill="#1F405A" d="M444.512 399.28C452.194 401.287 450.155 408.979 445.551 413.202C437.369 411.387 440.149 403.604 444.512 399.28Z"/><path fill="#1F405A" d="M186.688 461.25C188.33 461.047 190.793 461.023 192.51 460.951C195.984 473.415 199.671 507.28 200.712 520.833C193.244 522.709 188.319 523.26 180.614 523.787C178.478 523.943 176.347 524.146 174.221 524.398C170.871 506.343 171.187 480.909 167.298 462.55C174.014 462.479 180.034 461.892 186.688 461.25ZM173.404 467.078C173.998 477.086 175.387 487.861 176.57 497.868C177.26 503.705 178.208 513.139 179.692 518.563C181.017 519.306 181.546 518.874 183.442 518.633C186.877 518.177 191.97 517.658 195.24 516.949C193.5 506.527 192.561 495.909 191.21 485.453C190.597 480.705 189.779 470.226 188.142 466.224C185.986 465.781 185.425 465.983 183.183 466.287C179.926 466.581 176.666 466.844 173.404 467.078Z"/><path fill="#1F405A" d="M224.819 449.53L225.413 449.803C226.724 451.676 227.456 457.021 227.939 459.395C231.738 478.071 230.299 492.471 229.445 510.953C222.908 514.925 215.669 517.603 208.121 518.842C207.752 518.93 206.711 518.93 206.282 518.944C205.364 517.917 205.118 470.758 203.902 466.428C203.735 465.831 203.504 458.534 203.47 457.421C210.415 455.398 218.063 452.206 224.819 449.53ZM208.115 461.105C209.293 469.953 211.556 500.284 212.146 511.444C212.32 511.623 212.493 511.802 212.667 511.982C215.877 510.84 220.453 509.358 223.383 507.898C227.555 494.402 226.037 480.378 224.337 466.618C223.995 463.853 223.624 458.51 222.64 456.137L221.66 455.963C217.194 457.802 212.677 459.517 208.115 461.105Z"/><path fill="#1F405A" d="M135.233 460.089C142.413 461.556 149.647 462.461 156.905 463.487C158.462 473.758 159.686 484.371 161.308 494.71C162.37 501.479 165.944 518.043 165.909 523.737L165.34 524.213C157.389 523.353 148.738 521.883 141.314 518.826C138.345 501.292 131.535 476.383 135.233 460.089ZM148.351 516.2C151.65 516.891 157.005 518.181 160.201 518.531C156.885 503.741 153.493 482.792 152.335 467.59C147.644 466.981 143.589 466.121 138.977 465.159C138.716 480.035 143.183 502.026 148.351 516.2Z"/><path fill="#1F405A" d="M527.038 518.017C531.734 500.621 548.362 492.706 562.834 505.485C574.782 497.259 582.632 497.837 592.942 508.009C599.954 516.473 602.307 523.969 603.293 534.979C605.404 554.325 586.816 572.608 579.105 546.949C578.363 548.511 577.572 550.048 576.733 551.559C574.839 554.964 572.02 558.635 568.034 559.611C566.085 560.095 564.024 559.778 562.311 558.73C557.94 556.015 556.584 550.299 555.522 545.644C546.254 562.612 535.659 562.917 528.994 543.208C527.404 538.506 527.032 533.331 526.483 528.385C516.159 528.189 505.834 528.045 495.508 527.952L494.538 528.003L493.755 517.992L494.679 517.778C498.777 516.926 521.22 517.951 527.038 518.017Z"/><path fill="#708497" d="M494.679 517.778C494.916 521.419 495.675 524.206 495.508 527.952L494.538 528.003L493.755 517.992L494.679 517.778Z"/><path fill="#1F405A" d="M400.191 382.315C408.454 383.93 406.593 393.16 400.483 396.936C390.568 394.849 395.128 386.884 400.191 382.315Z"/><path fill="#1F405A" d="M622.452 381.873C631.474 382.353 631.29 392.181 625.346 397.629C616.478 396.849 616.959 387.041 622.452 381.873Z"/><path fill="#1F405A" d="M179.083 545.271C192.894 544.558 199.46 543.451 212.902 540.575C203.576 548.123 195.757 550.9 183.542 549.557C180.399 549.212 177.301 548.536 174.3 547.541C172.597 547.274 168.525 545.643 166.658 544.959C170.735 544.967 174.993 545.153 179.083 545.271Z"/><path fill="#304B69" d="M166.658 544.959C170.735 544.967 174.993 545.153 179.083 545.271L179.319 545.743C177.317 546.274 176.029 546.46 174.3 547.541C172.597 547.274 168.525 545.643 166.658 544.959Z"/><path fill="#708497" fill-opacity="0.25490198" d="M162.819 441.483C176.266 441.048 192.086 438.488 205.369 436.04C207.224 435.698 211.779 434.309 213.432 434.591C210.349 437.632 169.241 442.046 162.946 442.112L162.819 441.483Z"/><path fill="#F7F8F8" fill-opacity="0.011764706" d="M593.655 507.416C599.786 514.977 604.209 522.21 603.976 532.349L603.293 534.979C602.307 523.969 599.954 516.473 592.942 508.009L593.655 507.416Z"/><path fill="#304B69" fill-opacity="0.93725491" d="M748.52 574.171C744.673 572.782 742.548 571.8 738.874 569.953C742.682 571.009 746.246 572.079 750.166 572.671L748.52 574.171Z"/><path fill="#304B69" fill-opacity="0.98431373" d="M274.967 576.593C276.959 576.35 279.94 575.888 281.861 575.788L282.248 576.195L283.262 575.822L282.598 575.767L283.245 575.953L282.732 576.181L282.319 575.903L281.786 576.49C279.474 577.068 277.764 577.436 275.413 577.818L274.967 576.593Z"/><path fill="#304B69" fill-opacity="0.7764706" d="M157.366 442.696C154.7 443.115 151.791 443.607 149.27 442.612L150.492 442.114L150.032 442.144C151.865 441.98 152.853 442 154.703 442.06L157.366 442.696Z"/><path fill="#708497" fill-opacity="0.52156866" d="M154.703 442.06C157.559 441.781 159.942 441.56 162.819 441.483L162.946 442.112C161.156 442.317 159.148 442.595 157.366 442.696L154.703 442.06Z"/><path fill="#F7F8F8" fill-opacity="0.015686275" d="M892.167 803.293C891.276 802.717 890.332 801.96 889.474 801.313L889.493 800.68L891.343 800.315C891.894 801.629 892.255 801.983 892.167 803.293Z"/><path fill="#F7F8F8" fill-opacity="0.098039217" d="M661.528 408.259C661.458 405.992 661.521 404.749 661.729 402.486L662.098 402.562L662.533 404.336L661.528 408.259Z"/><path fill="#BBC0D6" fill-opacity="0.92941177" d="M730.026 687.547C728.423 687.317 728.143 687.244 726.602 686.736C727.886 686.174 728.808 686.47 730.355 686.578L730.026 687.547Z"/></svg>